<svg width="169" height="99" viewBox="0 0 169 99" fill="none" xmlns="http://www.w3.org/2000/svg">
<path d="M0 10C0 4.47715 4.47715 0 10 0H159C164.523 0 169 4.47715 169 10V89C169 94.5228 164.523 99 159 99H10C4.47716 99 0 94.5228 0 89V10Z" fill="#525152"/>
<path d="M32.6066 27.216C31.8506 27.216 31.1846 27.096 30.6086 26.856C30.0446 26.616 29.5646 26.28 29.1686 25.848C28.7846 25.416 28.4966 24.906 28.3046 24.318C28.1126 23.718 28.0166 23.058 28.0166 22.338C28.0166 21.618 28.1186 20.958 28.3226 20.358C28.5386 19.758 28.8386 19.242 29.2226 18.81C29.6066 18.366 30.0746 18.024 30.6266 17.784C31.1906 17.532 31.8146 17.406 32.4986 17.406C32.9186 17.406 33.3386 17.442 33.7586 17.514C34.1786 17.586 34.5806 17.7 34.9646 17.856L34.5866 19.278C34.3346 19.158 34.0406 19.062 33.7046 18.99C33.3806 18.918 33.0326 18.882 32.6606 18.882C31.7246 18.882 31.0046 19.176 30.5006 19.764C30.0086 20.352 29.7626 21.21 29.7626 22.338C29.7626 22.842 29.8166 23.304 29.9246 23.724C30.0446 24.144 30.2246 24.504 30.4646 24.804C30.7166 25.104 31.0346 25.338 31.4186 25.506C31.8026 25.662 32.2706 25.74 32.8226 25.74C33.2666 25.74 33.6686 25.698 34.0286 25.614C34.3886 25.53 34.6706 25.44 34.8746 25.344L35.1086 26.748C35.0126 26.808 34.8746 26.868 34.6946 26.928C34.5146 26.976 34.3106 27.018 34.0826 27.054C33.8546 27.102 33.6086 27.138 33.3446 27.162C33.0926 27.198 32.8466 27.216 32.6066 27.216ZM44.4072 17.64C43.9392 19.392 43.3872 21.072 42.7512 22.68C42.1272 24.288 41.5212 25.728 40.9332 27H39.4212C38.8332 25.728 38.2212 24.288 37.5852 22.68C36.9612 21.072 36.4152 19.392 35.9472 17.64H37.7472C37.8912 18.228 38.0592 18.858 38.2512 19.53C38.4552 20.19 38.6652 20.85 38.8812 21.51C39.1092 22.158 39.3372 22.788 39.5652 23.4C39.7932 24.012 40.0092 24.558 40.2132 25.038C40.4172 24.558 40.6332 24.012 40.8612 23.4C41.0892 22.788 41.3112 22.158 41.5272 21.51C41.7552 20.85 41.9652 20.19 42.1572 19.53C42.3612 18.858 42.5352 18.228 42.6792 17.64H44.4072ZM53.1003 17.712C53.1003 18.144 53.0103 18.564 52.8303 18.972C52.6623 19.368 52.4343 19.764 52.1463 20.16C51.8583 20.544 51.5343 20.928 51.1743 21.312C50.8143 21.684 50.4543 22.05 50.0943 22.41C49.8903 22.614 49.6503 22.854 49.3743 23.13C49.1103 23.406 48.8583 23.694 48.6183 23.994C48.3783 24.294 48.1743 24.582 48.0063 24.858C47.8503 25.134 47.7723 25.374 47.7723 25.578H53.5143V27H45.9543C45.9423 26.928 45.9363 26.856 45.9363 26.784C45.9363 26.712 45.9363 26.646 45.9363 26.586C45.9363 26.022 46.0263 25.5 46.2063 25.02C46.3983 24.528 46.6443 24.066 46.9443 23.634C47.2443 23.202 47.5803 22.794 47.9523 22.41C48.3243 22.026 48.6903 21.654 49.0503 21.294C49.3503 21.006 49.6323 20.724 49.8963 20.448C50.1723 20.16 50.4123 19.878 50.6163 19.602C50.8323 19.314 51.0003 19.02 51.1203 18.72C51.2523 18.42 51.3183 18.102 51.3183 17.766C51.3183 17.406 51.2583 17.1 51.1383 16.848C51.0303 16.596 50.8803 16.386 50.6883 16.218C50.4963 16.05 50.2683 15.93 50.0043 15.858C49.7523 15.774 49.4823 15.732 49.1943 15.732C48.8463 15.732 48.5283 15.78 48.2403 15.876C47.9523 15.972 47.6943 16.086 47.4663 16.218C47.2383 16.338 47.0463 16.47 46.8903 16.614C46.7343 16.746 46.6143 16.848 46.5303 16.92L45.7023 15.732C45.8103 15.612 45.9723 15.468 46.1883 15.3C46.4043 15.12 46.6623 14.952 46.9623 14.796C47.2623 14.64 47.5983 14.508 47.9703 14.4C48.3423 14.292 48.7443 14.238 49.1763 14.238C50.4843 14.238 51.4623 14.544 52.1103 15.156C52.7703 15.756 53.1003 16.608 53.1003 17.712ZM58.2745 26.028C58.2745 26.352 58.1665 26.634 57.9505 26.874C57.7345 27.114 57.4405 27.234 57.0685 27.234C56.6965 27.234 56.4025 27.114 56.1865 26.874C55.9705 26.634 55.8625 26.352 55.8625 26.028C55.8625 25.704 55.9705 25.422 56.1865 25.182C56.4025 24.942 56.6965 24.822 57.0685 24.822C57.4405 24.822 57.7345 24.942 57.9505 25.182C58.1665 25.422 58.2745 25.704 58.2745 26.028ZM67.2222 22.338C67.2222 21.246 66.9522 20.406 66.4122 19.818C65.8722 19.23 65.1522 18.936 64.2522 18.936C63.7482 18.936 63.3522 18.954 63.0642 18.99C62.7882 19.026 62.5662 19.068 62.3982 19.116V25.02C62.6022 25.188 62.8962 25.35 63.2802 25.506C63.6642 25.662 64.0842 25.74 64.5402 25.74C65.0202 25.74 65.4282 25.656 65.7642 25.488C66.1122 25.308 66.3942 25.068 66.6102 24.768C66.8262 24.456 66.9822 24.096 67.0782 23.688C67.1742 23.268 67.2222 22.818 67.2222 22.338ZM68.9682 22.338C68.9682 23.046 68.8722 23.7 68.6802 24.3C68.5002 24.9 68.2302 25.416 67.8702 25.848C67.5102 26.28 67.0662 26.616 66.5382 26.856C66.0222 27.096 65.4282 27.216 64.7562 27.216C64.2162 27.216 63.7362 27.144 63.3162 27C62.9082 26.856 62.6022 26.718 62.3982 26.586V30.33H60.7242V17.928C61.1202 17.832 61.6122 17.73 62.2002 17.622C62.8002 17.502 63.4902 17.442 64.2702 17.442C64.9902 17.442 65.6382 17.556 66.2142 17.784C66.7902 18.012 67.2822 18.336 67.6902 18.756C68.0982 19.176 68.4102 19.692 68.6262 20.304C68.8542 20.904 68.9682 21.582 68.9682 22.338ZM74.4918 25.794C74.8878 25.794 75.2358 25.788 75.5358 25.776C75.8478 25.752 76.1058 25.716 76.3098 25.668V22.878C76.1898 22.818 75.9918 22.77 75.7158 22.734C75.4518 22.686 75.1278 22.662 74.7438 22.662C74.4918 22.662 74.2218 22.68 73.9338 22.716C73.6578 22.752 73.3998 22.83 73.1598 22.95C72.9318 23.058 72.7398 23.214 72.5838 23.418C72.4278 23.61 72.3498 23.868 72.3498 24.192C72.3498 24.792 72.5418 25.212 72.9258 25.452C73.3098 25.68 73.8318 25.794 74.4918 25.794ZM74.3478 17.406C75.0198 17.406 75.5838 17.496 76.0398 17.676C76.5078 17.844 76.8798 18.09 77.1558 18.414C77.4438 18.726 77.6478 19.104 77.7678 19.548C77.8878 19.98 77.9478 20.46 77.9478 20.988V26.838C77.8038 26.862 77.5998 26.898 77.3358 26.946C77.0838 26.982 76.7958 27.018 76.4718 27.054C76.1478 27.09 75.7938 27.12 75.4098 27.144C75.0378 27.18 74.6658 27.198 74.2938 27.198C73.7658 27.198 73.2798 27.144 72.8358 27.036C72.3918 26.928 72.0078 26.76 71.6838 26.532C71.3598 26.292 71.1078 25.98 70.9278 25.596C70.7478 25.212 70.6578 24.75 70.6578 24.21C70.6578 23.694 70.7598 23.25 70.9638 22.878C71.1798 22.506 71.4678 22.206 71.8278 21.978C72.1878 21.75 72.6078 21.582 73.0878 21.474C73.5678 21.366 74.0718 21.312 74.5998 21.312C74.7678 21.312 74.9418 21.324 75.1218 21.348C75.3018 21.36 75.4698 21.384 75.6258 21.42C75.7938 21.444 75.9378 21.468 76.0578 21.492C76.1778 21.516 76.2618 21.534 76.3098 21.546V21.078C76.3098 20.802 76.2798 20.532 76.2198 20.268C76.1598 19.992 76.0518 19.752 75.8958 19.548C75.7398 19.332 75.5238 19.164 75.2478 19.044C74.9838 18.912 74.6358 18.846 74.2038 18.846C73.6518 18.846 73.1658 18.888 72.7458 18.972C72.3378 19.044 72.0318 19.122 71.8278 19.206L71.6298 17.82C71.8458 17.724 72.2058 17.634 72.7098 17.55C73.2138 17.454 73.7598 17.406 74.3478 17.406ZM86.5961 26.064C86.4521 26.16 86.1701 26.286 85.7501 26.442C85.3421 26.586 84.8621 26.658 84.3101 26.658C83.7461 26.658 83.2121 26.568 82.7081 26.388C82.2161 26.208 81.7841 25.932 81.4121 25.56C81.0401 25.176 80.7461 24.702 80.5301 24.138C80.3141 23.574 80.2061 22.902 80.2061 22.122C80.2061 21.438 80.3081 20.814 80.5121 20.25C80.7161 19.674 81.0101 19.182 81.3941 18.774C81.7901 18.354 82.2701 18.03 82.8341 17.802C83.3981 17.562 84.0341 17.442 84.7421 17.442C85.5221 17.442 86.2001 17.502 86.7761 17.622C87.3641 17.73 87.8561 17.832 88.2521 17.928V26.28C88.2521 27.72 87.8801 28.764 87.1361 29.412C86.3921 30.06 85.2641 30.384 83.7521 30.384C83.1641 30.384 82.6061 30.336 82.0781 30.24C81.5621 30.144 81.1121 30.03 80.7281 29.898L81.0341 28.44C81.3701 28.572 81.7781 28.686 82.2581 28.782C82.7501 28.89 83.2601 28.944 83.7881 28.944C84.7841 28.944 85.4981 28.746 85.9301 28.35C86.3741 27.954 86.5961 27.324 86.5961 26.46V26.064ZM86.5781 19.116C86.4101 19.068 86.1821 19.026 85.8941 18.99C85.6181 18.942 85.2401 18.918 84.7601 18.918C83.8601 18.918 83.1641 19.212 82.6721 19.8C82.1921 20.388 81.9521 21.168 81.9521 22.14C81.9521 22.68 82.0181 23.142 82.1501 23.526C82.2941 23.91 82.4801 24.228 82.7081 24.48C82.9481 24.732 83.2181 24.918 83.5181 25.038C83.8301 25.158 84.1481 25.218 84.4721 25.218C84.9161 25.218 85.3241 25.158 85.6961 25.038C86.0681 24.906 86.3621 24.756 86.5781 24.588V19.116ZM90.6123 22.338C90.6123 21.51 90.7323 20.79 90.9723 20.178C91.2123 19.554 91.5303 19.038 91.9263 18.63C92.3223 18.222 92.7783 17.916 93.2943 17.712C93.8103 17.508 94.3383 17.406 94.8783 17.406C96.1383 17.406 97.1043 17.802 97.7763 18.594C98.4483 19.374 98.7843 20.568 98.7843 22.176C98.7843 22.248 98.7843 22.344 98.7843 22.464C98.7843 22.572 98.7783 22.674 98.7663 22.77H92.3583C92.4303 23.742 92.7123 24.48 93.2043 24.984C93.6963 25.488 94.4643 25.74 95.5083 25.74C96.0963 25.74 96.5883 25.692 96.9843 25.596C97.3923 25.488 97.6983 25.386 97.9023 25.29L98.1363 26.694C97.9323 26.802 97.5723 26.916 97.0563 27.036C96.5523 27.156 95.9763 27.216 95.3283 27.216C94.5123 27.216 93.8043 27.096 93.2043 26.856C92.6163 26.604 92.1303 26.262 91.7463 25.83C91.3623 25.398 91.0743 24.888 90.8823 24.3C90.7023 23.7 90.6123 23.046 90.6123 22.338ZM97.0383 21.42C97.0503 20.664 96.8583 20.046 96.4623 19.566C96.0783 19.074 95.5443 18.828 94.8603 18.828C94.4763 18.828 94.1343 18.906 93.8343 19.062C93.5463 19.206 93.3003 19.398 93.0963 19.638C92.8923 19.878 92.7303 20.154 92.6103 20.466C92.5023 20.778 92.4303 21.096 92.3943 21.42H97.0383ZM103.367 25.794C104.051 25.794 104.555 25.704 104.879 25.524C105.215 25.344 105.383 25.056 105.383 24.66C105.383 24.252 105.221 23.928 104.897 23.688C104.573 23.448 104.039 23.178 103.295 22.878C102.935 22.734 102.587 22.59 102.251 22.446C101.927 22.29 101.645 22.11 101.405 21.906C101.165 21.702 100.973 21.456 100.829 21.168C100.685 20.88 100.613 20.526 100.613 20.106C100.613 19.278 100.919 18.624 101.531 18.144C102.143 17.652 102.977 17.406 104.033 17.406C104.297 17.406 104.561 17.424 104.825 17.46C105.089 17.484 105.335 17.52 105.563 17.568C105.791 17.604 105.989 17.646 106.157 17.694C106.337 17.742 106.475 17.784 106.571 17.82L106.265 19.26C106.085 19.164 105.803 19.068 105.419 18.972C105.035 18.864 104.573 18.81 104.033 18.81C103.565 18.81 103.157 18.906 102.809 19.098C102.461 19.278 102.287 19.566 102.287 19.962C102.287 20.166 102.323 20.346 102.395 20.502C102.479 20.658 102.599 20.802 102.755 20.934C102.923 21.054 103.127 21.168 103.367 21.276C103.607 21.384 103.895 21.498 104.231 21.618C104.675 21.786 105.071 21.954 105.419 22.122C105.767 22.278 106.061 22.464 106.301 22.68C106.553 22.896 106.745 23.16 106.877 23.472C107.009 23.772 107.075 24.144 107.075 24.588C107.075 25.452 106.751 26.106 106.103 26.55C105.467 26.994 104.555 27.216 103.367 27.216C102.539 27.216 101.891 27.144 101.423 27C100.955 26.868 100.637 26.766 100.469 26.694L100.775 25.254C100.967 25.326 101.273 25.434 101.693 25.578C102.113 25.722 102.671 25.794 103.367 25.794ZM111.202 26.028C111.202 26.352 111.094 26.634 110.878 26.874C110.662 27.114 110.368 27.234 109.996 27.234C109.624 27.234 109.33 27.114 109.114 26.874C108.898 26.634 108.79 26.352 108.79 26.028C108.79 25.704 108.898 25.422 109.114 25.182C109.33 24.942 109.624 24.822 109.996 24.822C110.368 24.822 110.662 24.942 110.878 25.182C111.094 25.422 111.202 25.704 111.202 26.028ZM119.7 19.62C119.496 19.452 119.202 19.29 118.818 19.134C118.434 18.978 118.014 18.9 117.558 18.9C117.078 18.9 116.664 18.99 116.316 19.17C115.98 19.338 115.704 19.578 115.488 19.89C115.272 20.19 115.116 20.55 115.02 20.97C114.924 21.39 114.876 21.84 114.876 22.32C114.876 23.412 115.146 24.258 115.686 24.858C116.226 25.446 116.946 25.74 117.846 25.74C118.302 25.74 118.68 25.722 118.98 25.686C119.292 25.638 119.532 25.59 119.7 25.542V19.62ZM119.7 13.32L121.374 13.032V26.73C120.99 26.838 120.498 26.946 119.898 27.054C119.298 27.162 118.608 27.216 117.828 27.216C117.108 27.216 116.46 27.102 115.884 26.874C115.308 26.646 114.816 26.322 114.408 25.902C114 25.482 113.682 24.972 113.454 24.372C113.238 23.76 113.13 23.076 113.13 22.32C113.13 21.6 113.22 20.94 113.4 20.34C113.592 19.74 113.868 19.224 114.228 18.792C114.588 18.36 115.026 18.024 115.542 17.784C116.07 17.544 116.67 17.424 117.342 17.424C117.882 17.424 118.356 17.496 118.764 17.64C119.184 17.784 119.496 17.922 119.7 18.054V13.32ZM123.73 22.338C123.73 21.51 123.85 20.79 124.09 20.178C124.33 19.554 124.648 19.038 125.044 18.63C125.44 18.222 125.896 17.916 126.412 17.712C126.928 17.508 127.456 17.406 127.996 17.406C129.256 17.406 130.222 17.802 130.894 18.594C131.566 19.374 131.902 20.568 131.902 22.176C131.902 22.248 131.902 22.344 131.902 22.464C131.902 22.572 131.896 22.674 131.884 22.77H125.476C125.548 23.742 125.83 24.48 126.322 24.984C126.814 25.488 127.582 25.74 128.626 25.74C129.214 25.74 129.706 25.692 130.102 25.596C130.51 25.488 130.816 25.386 131.02 25.29L131.254 26.694C131.05 26.802 130.69 26.916 130.174 27.036C129.67 27.156 129.094 27.216 128.446 27.216C127.63 27.216 126.922 27.096 126.322 26.856C125.734 26.604 125.248 26.262 124.864 25.83C124.48 25.398 124.192 24.888 124 24.3C123.82 23.7 123.73 23.046 123.73 22.338ZM130.156 21.42C130.168 20.664 129.976 20.046 129.58 19.566C129.196 19.074 128.662 18.828 127.978 18.828C127.594 18.828 127.252 18.906 126.952 19.062C126.664 19.206 126.418 19.398 126.214 19.638C126.01 19.878 125.848 20.154 125.728 20.466C125.62 20.778 125.548 21.096 125.512 21.42H130.156ZM141.614 17.64C141.146 19.392 140.594 21.072 139.958 22.68C139.334 24.288 138.728 25.728 138.14 27H136.628C136.04 25.728 135.428 24.288 134.792 22.68C134.168 21.072 133.622 19.392 133.154 17.64H134.954C135.098 18.228 135.266 18.858 135.458 19.53C135.662 20.19 135.872 20.85 136.088 21.51C136.316 22.158 136.544 22.788 136.772 23.4C137 24.012 137.216 24.558 137.42 25.038C137.624 24.558 137.84 24.012 138.068 23.4C138.296 22.788 138.518 22.158 138.734 21.51C138.962 20.85 139.172 20.19 139.364 19.53C139.568 18.858 139.742 18.228 139.886 17.64H141.614Z" fill="white"/>
<path d="M20 52C20 46.4772 24.4772 42 30 42H139C144.523 42 149 46.4772 149 52V69C149 74.5228 144.523 79 139 79H30C24.4771 79 20 74.5228 20 69V52Z" fill="#818081"/>
<rect x="29" y="53" width="22" height="15" rx="1" fill="#EA2E50"/>
<path d="M62.2687 54.526H64.0147V67H62.2687V54.526ZM69.1727 65.794C69.8567 65.794 70.3607 65.704 70.6847 65.524C71.0207 65.344 71.1887 65.056 71.1887 64.66C71.1887 64.252 71.0267 63.928 70.7027 63.688C70.3787 63.448 69.8447 63.178 69.1007 62.878C68.7407 62.734 68.3927 62.59 68.0567 62.446C67.7327 62.29 67.4507 62.11 67.2107 61.906C66.9707 61.702 66.7787 61.456 66.6347 61.168C66.4907 60.88 66.4187 60.526 66.4187 60.106C66.4187 59.278 66.7247 58.624 67.3367 58.144C67.9487 57.652 68.7827 57.406 69.8387 57.406C70.1027 57.406 70.3667 57.424 70.6307 57.46C70.8947 57.484 71.1407 57.52 71.3687 57.568C71.5967 57.604 71.7947 57.646 71.9627 57.694C72.1427 57.742 72.2807 57.784 72.3767 57.82L72.0707 59.26C71.8907 59.164 71.6087 59.068 71.2247 58.972C70.8407 58.864 70.3787 58.81 69.8387 58.81C69.3707 58.81 68.9627 58.906 68.6147 59.098C68.2667 59.278 68.0927 59.566 68.0927 59.962C68.0927 60.166 68.1287 60.346 68.2007 60.502C68.2847 60.658 68.4047 60.802 68.5607 60.934C68.7287 61.054 68.9327 61.168 69.1727 61.276C69.4127 61.384 69.7007 61.498 70.0367 61.618C70.4807 61.786 70.8767 61.954 71.2247 62.122C71.5727 62.278 71.8667 62.464 72.1067 62.68C72.3587 62.896 72.5507 63.16 72.6827 63.472C72.8147 63.772 72.8807 64.144 72.8807 64.588C72.8807 65.452 72.5567 66.106 71.9087 66.55C71.2727 66.994 70.3607 67.216 69.1727 67.216C68.3447 67.216 67.6967 67.144 67.2287 67C66.7607 66.868 66.4427 66.766 66.2747 66.694L66.5807 65.254C66.7727 65.326 67.0787 65.434 67.4987 65.578C67.9187 65.722 68.4767 65.794 69.1727 65.794ZM82.6499 57.442C82.7939 57.442 82.9559 57.454 83.1359 57.478C83.3279 57.49 83.5139 57.514 83.6939 57.55C83.8739 57.574 84.0359 57.604 84.1799 57.64C84.3359 57.664 84.4499 57.688 84.5219 57.712L84.2339 59.17C84.1019 59.122 83.8799 59.068 83.5679 59.008C83.2679 58.936 82.8779 58.9 82.3979 58.9C82.0859 58.9 81.7739 58.936 81.4619 59.008C81.1619 59.068 80.9639 59.11 80.8679 59.134V67H79.1939V58.036C79.5899 57.892 80.0819 57.76 80.6699 57.64C81.2579 57.508 81.9179 57.442 82.6499 57.442ZM93.5893 66.73C93.2053 66.826 92.6953 66.928 92.0593 67.036C91.4353 67.144 90.7093 67.198 89.8813 67.198C89.1613 67.198 88.5553 67.096 88.0633 66.892C87.5713 66.676 87.1753 66.376 86.8753 65.992C86.5753 65.608 86.3593 65.158 86.2273 64.642C86.0953 64.114 86.0293 63.532 86.0293 62.896V57.64H87.7033V62.536C87.7033 63.676 87.8833 64.492 88.2433 64.984C88.6033 65.476 89.2093 65.722 90.0613 65.722C90.2413 65.722 90.4273 65.716 90.6193 65.704C90.8113 65.692 90.9913 65.68 91.1593 65.668C91.3273 65.644 91.4773 65.626 91.6093 65.614C91.7533 65.59 91.8553 65.566 91.9153 65.542V57.64H93.5893V66.73ZM96.4732 57.91C96.8572 57.814 97.3672 57.712 98.0032 57.604C98.6392 57.496 99.3712 57.442 100.199 57.442C100.943 57.442 101.561 57.55 102.053 57.766C102.545 57.97 102.935 58.264 103.223 58.648C103.523 59.02 103.733 59.47 103.853 59.998C103.973 60.526 104.033 61.108 104.033 61.744V67H102.359V62.104C102.359 61.528 102.317 61.036 102.233 60.628C102.161 60.22 102.035 59.89 101.855 59.638C101.675 59.386 101.435 59.206 101.135 59.098C100.835 58.978 100.463 58.918 100.019 58.918C99.8392 58.918 99.6532 58.924 99.4612 58.936C99.2692 58.948 99.0832 58.966 98.9032 58.99C98.7352 59.002 98.5792 59.02 98.4352 59.044C98.3032 59.068 98.2072 59.086 98.1472 59.098V67H96.4732V57.91ZM106.809 57.91C107.193 57.814 107.703 57.712 108.339 57.604C108.975 57.496 109.707 57.442 110.535 57.442C111.279 57.442 111.897 57.55 112.389 57.766C112.881 57.97 113.271 58.264 113.559 58.648C113.859 59.02 114.069 59.47 114.189 59.998C114.309 60.526 114.369 61.108 114.369 61.744V67H112.695V62.104C112.695 61.528 112.653 61.036 112.569 60.628C112.497 60.22 112.371 59.89 112.191 59.638C112.011 59.386 111.771 59.206 111.471 59.098C111.171 58.978 110.799 58.918 110.355 58.918C110.175 58.918 109.989 58.924 109.797 58.936C109.605 58.948 109.419 58.966 109.239 58.99C109.071 59.002 108.915 59.02 108.771 59.044C108.639 59.068 108.543 59.086 108.483 59.098V67H106.809V57.91ZM118.819 67H117.145V57.64H118.819V67ZM117.973 55.948C117.673 55.948 117.415 55.852 117.199 55.66C116.995 55.456 116.893 55.186 116.893 54.85C116.893 54.514 116.995 54.25 117.199 54.058C117.415 53.854 117.673 53.752 117.973 53.752C118.273 53.752 118.525 53.854 118.729 54.058C118.945 54.25 119.053 54.514 119.053 54.85C119.053 55.186 118.945 55.456 118.729 55.66C118.525 55.852 118.273 55.948 117.973 55.948ZM121.698 57.91C122.082 57.814 122.592 57.712 123.228 57.604C123.864 57.496 124.596 57.442 125.424 57.442C126.168 57.442 126.786 57.55 127.278 57.766C127.77 57.97 128.16 58.264 128.448 58.648C128.748 59.02 128.958 59.47 129.078 59.998C129.198 60.526 129.258 61.108 129.258 61.744V67H127.584V62.104C127.584 61.528 127.542 61.036 127.458 60.628C127.386 60.22 127.26 59.89 127.08 59.638C126.9 59.386 126.66 59.206 126.36 59.098C126.06 58.978 125.688 58.918 125.244 58.918C125.064 58.918 124.878 58.924 124.686 58.936C124.494 58.948 124.308 58.966 124.128 58.99C123.96 59.002 123.804 59.02 123.66 59.044C123.528 59.068 123.432 59.086 123.372 59.098V67H121.698V57.91ZM137.902 66.064C137.758 66.16 137.476 66.286 137.056 66.442C136.648 66.586 136.168 66.658 135.616 66.658C135.052 66.658 134.518 66.568 134.014 66.388C133.522 66.208 133.09 65.932 132.718 65.56C132.346 65.176 132.052 64.702 131.836 64.138C131.62 63.574 131.512 62.902 131.512 62.122C131.512 61.438 131.614 60.814 131.818 60.25C132.022 59.674 132.316 59.182 132.7 58.774C133.096 58.354 133.576 58.03 134.14 57.802C134.704 57.562 135.34 57.442 136.048 57.442C136.828 57.442 137.506 57.502 138.082 57.622C138.67 57.73 139.162 57.832 139.558 57.928V66.28C139.558 67.72 139.186 68.764 138.442 69.412C137.698 70.06 136.57 70.384 135.058 70.384C134.47 70.384 133.912 70.336 133.384 70.24C132.868 70.144 132.418 70.03 132.034 69.898L132.34 68.44C132.676 68.572 133.084 68.686 133.564 68.782C134.056 68.89 134.566 68.944 135.094 68.944C136.09 68.944 136.804 68.746 137.236 68.35C137.68 67.954 137.902 67.324 137.902 66.46V66.064ZM137.884 59.116C137.716 59.068 137.488 59.026 137.2 58.99C136.924 58.942 136.546 58.918 136.066 58.918C135.166 58.918 134.47 59.212 133.978 59.8C133.498 60.388 133.258 61.168 133.258 62.14C133.258 62.68 133.324 63.142 133.456 63.526C133.6 63.91 133.786 64.228 134.014 64.48C134.254 64.732 134.524 64.918 134.824 65.038C135.136 65.158 135.454 65.218 135.778 65.218C136.222 65.218 136.63 65.158 137.002 65.038C137.374 64.906 137.668 64.756 137.884 64.588V59.116Z" fill="white"/>
</svg>
