<svg width="229" height="77" viewBox="0 0 229 77" fill="none" xmlns="http://www.w3.org/2000/svg">
<path d="M75.5 10.02C75.5 4.49717 79.9772 0.0200195 85.5 0.0200195H199.5C205.023 0.0200195 209.5 4.49717 209.5 10.02V66.02C209.5 71.5429 205.023 76.02 199.5 76.02H85.5C79.9772 76.02 75.5 71.5429 75.5 66.02V10.02Z" fill="#818081"/>
<path d="M75.5 25.02C75.5 19.4972 79.9772 15.02 85.5 15.02V15.02C91.0228 15.02 95.5 19.4972 95.5 25.02V51.02C95.5 56.5429 91.0228 61.02 85.5 61.02V61.02C79.9772 61.02 75.5 56.5429 75.5 51.02V25.02Z" fill="#818081"/>
<g filter="url(#filter0_di_670_7744)">
<path d="M80.9648 16.52H64.5C63.9477 16.52 63.5 16.9677 63.5 17.52V33.52C63.5 34.0723 63.9477 34.52 64.5 34.52H80.9648C81.2992 34.52 81.6114 34.3529 81.7969 34.0747L87.1302 26.0747C87.3541 25.7388 87.3541 25.3012 87.1302 24.9653L81.7969 16.9653C81.6114 16.6871 81.2992 16.52 80.9648 16.52Z" fill="#F55C1A"/>
<path d="M88.3783 24.1333L87.2314 24.8979L88.3783 24.1333L83.0449 16.1333C82.5813 15.4378 81.8007 15.02 80.9648 15.02H64.5C63.1193 15.02 62 16.1393 62 17.52V33.52C62 34.9007 63.1193 36.02 64.5 36.02H80.9648C81.8007 36.02 82.5813 35.6023 83.0449 34.9068L88.3783 26.9068C88.9381 26.067 88.9381 24.973 88.3783 24.1333Z" stroke="#FFE699" stroke-width="3"/>
</g>
<g filter="url(#filter1_di_670_7744)">
<rect x="64.5" y="43.02" width="22" height="15" rx="1" fill="#F5C51F"/>
</g>
<g filter="url(#filter2_di_670_7744)">
<rect x="4.5" y="39.02" width="51" height="23" rx="1" fill="#F5C51F"/>
</g>
<rect x="8.5" y="43.021" width="43" height="15" rx="1" fill="#818081"/>
<path d="M19.9878 56.021C19.8291 55.601 19.6798 55.1904 19.5398 54.789C19.3998 54.3784 19.2551 53.963 19.1058 53.543H14.7098L13.8278 56.021H12.4138C12.7871 54.9944 13.1371 54.047 13.4638 53.179C13.7904 52.3017 14.1078 51.471 14.4158 50.687C14.7331 49.903 15.0458 49.1564 15.3538 48.447C15.6618 47.7284 15.9838 47.019 16.3198 46.319H17.5658C17.9018 47.019 18.2238 47.7284 18.5318 48.447C18.8398 49.1564 19.1478 49.903 19.4558 50.687C19.7731 51.471 20.0951 52.3017 20.4218 53.179C20.7484 54.047 21.0984 54.9944 21.4718 56.021H19.9878ZM18.7138 52.423C18.4151 51.611 18.1164 50.827 17.8178 50.071C17.5284 49.3057 17.2251 48.573 16.9078 47.873C16.5811 48.573 16.2684 49.3057 15.9698 50.071C15.6804 50.827 15.3911 51.611 15.1018 52.423H18.7138ZM24.889 56.161C24.0863 56.1424 23.517 55.9697 23.181 55.643C22.845 55.3164 22.677 54.8077 22.677 54.117V45.381L23.979 45.157V53.907C23.979 54.1217 23.9976 54.299 24.035 54.439C24.0723 54.579 24.133 54.691 24.217 54.775C24.301 54.859 24.413 54.9244 24.553 54.971C24.693 55.0084 24.8656 55.041 25.071 55.069L24.889 56.161ZM26.1271 52.395C26.1271 51.751 26.2204 51.191 26.4071 50.715C26.5938 50.2297 26.8411 49.8284 27.1491 49.511C27.4571 49.1937 27.8118 48.9557 28.2131 48.797C28.6144 48.6384 29.0251 48.559 29.4451 48.559C30.4251 48.559 31.1764 48.867 31.6991 49.483C32.2218 50.0897 32.4831 51.0184 32.4831 52.269C32.4831 52.325 32.4831 52.3997 32.4831 52.493C32.4831 52.577 32.4784 52.6564 32.4691 52.731H27.4851C27.5411 53.487 27.7604 54.061 28.1431 54.453C28.5258 54.845 29.1231 55.041 29.9351 55.041C30.3924 55.041 30.7751 55.0037 31.0831 54.929C31.4004 54.845 31.6384 54.7657 31.7971 54.691L31.9791 55.783C31.8204 55.867 31.5404 55.9557 31.1391 56.049C30.7471 56.1424 30.2991 56.189 29.7951 56.189C29.1604 56.189 28.6098 56.0957 28.1431 55.909C27.6858 55.713 27.3078 55.447 27.0091 55.111C26.7104 54.775 26.4864 54.3784 26.3371 53.921C26.1971 53.4544 26.1271 52.9457 26.1271 52.395ZM31.1251 51.681C31.1344 51.093 30.9851 50.6124 30.6771 50.239C30.3784 49.8564 29.9631 49.665 29.4311 49.665C29.1324 49.665 28.8664 49.7257 28.6331 49.847C28.4091 49.959 28.2178 50.1084 28.0591 50.295C27.9004 50.4817 27.7744 50.6964 27.6811 50.939C27.5971 51.1817 27.5411 51.429 27.5131 51.681H31.1251ZM38.7074 56.021C38.6047 55.8157 38.4787 55.587 38.3294 55.335C38.1801 55.083 38.0167 54.8264 37.8394 54.565C37.6621 54.2944 37.4801 54.0284 37.2934 53.767C37.1067 53.5057 36.9247 53.2584 36.7474 53.025C36.5701 53.2584 36.3881 53.5104 36.2014 53.781C36.0147 54.0424 35.8327 54.3084 35.6554 54.579C35.4874 54.8404 35.3287 55.097 35.1794 55.349C35.0301 55.601 34.9041 55.825 34.8014 56.021H33.4574C33.7841 55.3864 34.1714 54.7424 34.6194 54.089C35.0767 53.4264 35.5294 52.7964 35.9774 52.199L33.5694 48.741H35.0394L36.7754 51.289L38.5254 48.741H39.9114L37.5594 52.115C38.0074 52.7217 38.4647 53.3657 38.9314 54.047C39.4074 54.719 39.8087 55.377 40.1354 56.021H38.7074ZM43.9678 55.083C44.2758 55.083 44.5465 55.0784 44.7798 55.069C45.0225 55.0504 45.2231 55.0224 45.3818 54.985V52.815C45.2885 52.7684 45.1345 52.731 44.9198 52.703C44.7145 52.6657 44.4625 52.647 44.1638 52.647C43.9678 52.647 43.7578 52.661 43.5338 52.689C43.3191 52.717 43.1185 52.7777 42.9318 52.871C42.7545 52.955 42.6051 53.0764 42.4838 53.235C42.3625 53.3844 42.3018 53.585 42.3018 53.837C42.3018 54.3037 42.4511 54.6304 42.7498 54.817C43.0485 54.9944 43.4545 55.083 43.9678 55.083ZM43.8558 48.559C44.3785 48.559 44.8171 48.629 45.1718 48.769C45.5358 48.8997 45.8251 49.091 46.0398 49.343C46.2638 49.5857 46.4225 49.8797 46.5158 50.225C46.6091 50.561 46.6558 50.9344 46.6558 51.345V55.895C46.5438 55.9137 46.3851 55.9417 46.1798 55.979C45.9838 56.007 45.7598 56.035 45.5078 56.063C45.2558 56.091 44.9805 56.1144 44.6818 56.133C44.3925 56.161 44.1031 56.175 43.8138 56.175C43.4031 56.175 43.0251 56.133 42.6798 56.049C42.3345 55.965 42.0358 55.8344 41.7838 55.657C41.5318 55.4704 41.3358 55.2277 41.1958 54.929C41.0558 54.6304 40.9858 54.271 40.9858 53.851C40.9858 53.4497 41.0651 53.1044 41.2238 52.815C41.3918 52.5257 41.6158 52.2924 41.8958 52.115C42.1758 51.9377 42.5025 51.807 42.8758 51.723C43.2491 51.639 43.6411 51.597 44.0518 51.597C44.1825 51.597 44.3178 51.6064 44.4578 51.625C44.5978 51.6344 44.7285 51.653 44.8498 51.681C44.9805 51.6997 45.0925 51.7184 45.1858 51.737C45.2791 51.7557 45.3445 51.7697 45.3818 51.779V51.415C45.3818 51.2004 45.3585 50.9904 45.3118 50.785C45.2651 50.5704 45.1811 50.3837 45.0598 50.225C44.9385 50.057 44.7705 49.9264 44.5558 49.833C44.3505 49.7304 44.0798 49.679 43.7438 49.679C43.3145 49.679 42.9365 49.7117 42.6098 49.777C42.2925 49.833 42.0545 49.8937 41.8958 49.959L41.7418 48.881C41.9098 48.8064 42.1898 48.7364 42.5818 48.671C42.9738 48.5964 43.3985 48.559 43.8558 48.559Z" fill="#F6EEE8"/>
<g filter="url(#filter3_di_670_7744)">
<rect x="55.5" y="47.02" width="9" height="7" fill="#F5C51F"/>
</g>
<path d="M95.5 25.02C95.5 19.4972 99.9772 15.02 105.5 15.02H179.5C185.023 15.02 189.5 19.4972 189.5 25.02V51.02C189.5 56.5429 185.023 61.02 179.5 61.02H105.5C99.9772 61.02 95.5 56.5429 95.5 51.02V25.02Z" fill="#525152"/>
<path d="M110.687 44.79C109.811 44.79 109.013 44.646 108.293 44.358C107.573 44.07 106.955 43.65 106.439 43.098C105.923 42.546 105.521 41.868 105.233 41.064C104.957 40.248 104.819 39.318 104.819 38.274C104.819 37.23 104.975 36.306 105.287 35.502C105.611 34.686 106.043 34.002 106.583 33.45C107.123 32.898 107.753 32.478 108.473 32.19C109.193 31.902 109.961 31.758 110.777 31.758C111.293 31.758 111.755 31.794 112.163 31.866C112.583 31.938 112.943 32.022 113.243 32.118C113.555 32.214 113.807 32.31 113.999 32.406C114.191 32.502 114.323 32.574 114.395 32.622L113.891 34.062C113.783 33.99 113.627 33.912 113.423 33.828C113.219 33.744 112.985 33.66 112.721 33.576C112.469 33.492 112.187 33.426 111.875 33.378C111.575 33.318 111.269 33.288 110.957 33.288C110.297 33.288 109.703 33.402 109.175 33.63C108.647 33.858 108.197 34.188 107.825 34.62C107.453 35.052 107.165 35.58 106.961 36.204C106.769 36.816 106.673 37.506 106.673 38.274C106.673 39.018 106.757 39.696 106.925 40.308C107.105 40.92 107.369 41.448 107.717 41.892C108.065 42.324 108.497 42.66 109.013 42.9C109.541 43.14 110.153 43.26 110.849 43.26C111.653 43.26 112.319 43.176 112.847 43.008C113.375 42.84 113.771 42.69 114.035 42.558L114.485 43.998C114.401 44.058 114.251 44.136 114.035 44.232C113.819 44.316 113.549 44.4 113.225 44.484C112.901 44.568 112.523 44.64 112.091 44.7C111.659 44.76 111.191 44.79 110.687 44.79ZM126.864 32.046C126.408 33.366 125.97 34.59 125.55 35.718C125.142 36.834 124.74 37.896 124.344 38.904C123.948 39.912 123.552 40.878 123.156 41.802C122.772 42.714 122.376 43.62 121.968 44.52H120.33C119.922 43.62 119.52 42.714 119.124 41.802C118.74 40.878 118.344 39.912 117.936 38.904C117.54 37.896 117.132 36.834 116.712 35.718C116.292 34.59 115.86 33.366 115.416 32.046H117.342C117.99 33.942 118.626 35.766 119.25 37.518C119.874 39.27 120.516 40.914 121.176 42.45C121.836 40.926 122.478 39.288 123.102 37.536C123.726 35.772 124.356 33.942 124.992 32.046H126.864ZM135.455 35.232C135.455 35.664 135.365 36.084 135.185 36.492C135.017 36.888 134.789 37.284 134.501 37.68C134.213 38.064 133.889 38.448 133.529 38.832C133.169 39.204 132.809 39.57 132.449 39.93C132.245 40.134 132.005 40.374 131.729 40.65C131.465 40.926 131.213 41.214 130.973 41.514C130.733 41.814 130.529 42.102 130.361 42.378C130.205 42.654 130.127 42.894 130.127 43.098H135.869V44.52H128.309C128.297 44.448 128.291 44.376 128.291 44.304C128.291 44.232 128.291 44.166 128.291 44.106C128.291 43.542 128.381 43.02 128.561 42.54C128.753 42.048 128.999 41.586 129.299 41.154C129.599 40.722 129.935 40.314 130.307 39.93C130.679 39.546 131.045 39.174 131.405 38.814C131.705 38.526 131.987 38.244 132.251 37.968C132.527 37.68 132.767 37.398 132.971 37.122C133.187 36.834 133.355 36.54 133.475 36.24C133.607 35.94 133.673 35.622 133.673 35.286C133.673 34.926 133.613 34.62 133.493 34.368C133.385 34.116 133.235 33.906 133.043 33.738C132.851 33.57 132.623 33.45 132.359 33.378C132.107 33.294 131.837 33.252 131.549 33.252C131.201 33.252 130.883 33.3 130.595 33.396C130.307 33.492 130.049 33.606 129.821 33.738C129.593 33.858 129.401 33.99 129.245 34.134C129.089 34.266 128.969 34.368 128.885 34.44L128.057 33.252C128.165 33.132 128.327 32.988 128.543 32.82C128.759 32.64 129.017 32.472 129.317 32.316C129.617 32.16 129.953 32.028 130.325 31.92C130.697 31.812 131.099 31.758 131.531 31.758C132.839 31.758 133.817 32.064 134.465 32.676C135.125 33.276 135.455 34.128 135.455 35.232ZM153.165 38.274C153.165 39.354 152.997 40.296 152.661 41.1C152.325 41.892 151.851 42.552 151.239 43.08C150.627 43.596 149.895 43.986 149.043 44.25C148.191 44.502 147.255 44.628 146.235 44.628C145.731 44.628 145.173 44.604 144.561 44.556C143.961 44.52 143.415 44.442 142.923 44.322V32.226C143.415 32.106 143.961 32.028 144.561 31.992C145.173 31.944 145.731 31.92 146.235 31.92C147.255 31.92 148.191 32.052 149.043 32.316C149.895 32.568 150.627 32.958 151.239 33.486C151.851 34.002 152.325 34.662 152.661 35.466C152.997 36.258 153.165 37.194 153.165 38.274ZM146.379 43.098C148.035 43.098 149.271 42.678 150.087 41.838C150.903 40.986 151.311 39.798 151.311 38.274C151.311 36.75 150.903 35.568 150.087 34.728C149.271 33.876 148.035 33.45 146.379 33.45C145.887 33.45 145.503 33.456 145.227 33.468C144.963 33.48 144.777 33.492 144.669 33.504V43.044C144.777 43.056 144.963 43.068 145.227 43.08C145.503 43.092 145.887 43.098 146.379 43.098ZM163.909 39.84C163.909 40.584 163.801 41.256 163.585 41.856C163.369 42.456 163.063 42.972 162.667 43.404C162.283 43.836 161.821 44.172 161.281 44.412C160.741 44.64 160.153 44.754 159.517 44.754C158.881 44.754 158.293 44.64 157.753 44.412C157.213 44.172 156.745 43.836 156.349 43.404C155.965 42.972 155.665 42.456 155.449 41.856C155.233 41.256 155.125 40.584 155.125 39.84C155.125 39.108 155.233 38.442 155.449 37.842C155.665 37.23 155.965 36.708 156.349 36.276C156.745 35.844 157.213 35.514 157.753 35.286C158.293 35.046 158.881 34.926 159.517 34.926C160.153 34.926 160.741 35.046 161.281 35.286C161.821 35.514 162.283 35.844 162.667 36.276C163.063 36.708 163.369 37.23 163.585 37.842C163.801 38.442 163.909 39.108 163.909 39.84ZM162.163 39.84C162.163 38.784 161.923 37.95 161.443 37.338C160.975 36.714 160.333 36.402 159.517 36.402C158.701 36.402 158.053 36.714 157.573 37.338C157.105 37.95 156.871 38.784 156.871 39.84C156.871 40.896 157.105 41.736 157.573 42.36C158.053 42.972 158.701 43.278 159.517 43.278C160.333 43.278 160.975 42.972 161.443 42.36C161.923 41.736 162.163 40.896 162.163 39.84ZM170.332 44.736C169.576 44.736 168.91 44.616 168.334 44.376C167.77 44.136 167.29 43.8 166.894 43.368C166.51 42.936 166.222 42.426 166.03 41.838C165.838 41.238 165.742 40.578 165.742 39.858C165.742 39.138 165.844 38.478 166.048 37.878C166.264 37.278 166.564 36.762 166.948 36.33C167.332 35.886 167.8 35.544 168.352 35.304C168.916 35.052 169.54 34.926 170.224 34.926C170.644 34.926 171.064 34.962 171.484 35.034C171.904 35.106 172.306 35.22 172.69 35.376L172.312 36.798C172.06 36.678 171.766 36.582 171.43 36.51C171.106 36.438 170.758 36.402 170.386 36.402C169.45 36.402 168.73 36.696 168.226 37.284C167.734 37.872 167.488 38.73 167.488 39.858C167.488 40.362 167.542 40.824 167.65 41.244C167.77 41.664 167.95 42.024 168.19 42.324C168.442 42.624 168.76 42.858 169.144 43.026C169.528 43.182 169.996 43.26 170.548 43.26C170.992 43.26 171.394 43.218 171.754 43.134C172.114 43.05 172.396 42.96 172.6 42.864L172.834 44.268C172.738 44.328 172.6 44.388 172.42 44.448C172.24 44.496 172.036 44.538 171.808 44.574C171.58 44.622 171.334 44.658 171.07 44.682C170.818 44.718 170.572 44.736 170.332 44.736ZM176.809 43.314C177.493 43.314 177.997 43.224 178.321 43.044C178.657 42.864 178.825 42.576 178.825 42.18C178.825 41.772 178.663 41.448 178.339 41.208C178.015 40.968 177.481 40.698 176.737 40.398C176.377 40.254 176.029 40.11 175.693 39.966C175.369 39.81 175.087 39.63 174.847 39.426C174.607 39.222 174.415 38.976 174.271 38.688C174.127 38.4 174.055 38.046 174.055 37.626C174.055 36.798 174.361 36.144 174.973 35.664C175.585 35.172 176.419 34.926 177.475 34.926C177.739 34.926 178.003 34.944 178.267 34.98C178.531 35.004 178.777 35.04 179.005 35.088C179.233 35.124 179.431 35.166 179.599 35.214C179.779 35.262 179.917 35.304 180.013 35.34L179.707 36.78C179.527 36.684 179.245 36.588 178.861 36.492C178.477 36.384 178.015 36.33 177.475 36.33C177.007 36.33 176.599 36.426 176.251 36.618C175.903 36.798 175.729 37.086 175.729 37.482C175.729 37.686 175.765 37.866 175.837 38.022C175.921 38.178 176.041 38.322 176.197 38.454C176.365 38.574 176.569 38.688 176.809 38.796C177.049 38.904 177.337 39.018 177.673 39.138C178.117 39.306 178.513 39.474 178.861 39.642C179.209 39.798 179.503 39.984 179.743 40.2C179.995 40.416 180.187 40.68 180.319 40.992C180.451 41.292 180.517 41.664 180.517 42.108C180.517 42.972 180.193 43.626 179.545 44.07C178.909 44.514 177.997 44.736 176.809 44.736C175.981 44.736 175.333 44.664 174.865 44.52C174.397 44.388 174.079 44.286 173.911 44.214L174.217 42.774C174.409 42.846 174.715 42.954 175.135 43.098C175.555 43.242 176.113 43.314 176.809 43.314Z" fill="white"/>
<path d="M189.5 25.02C189.5 19.4972 193.977 15.02 199.5 15.02V15.02C205.023 15.02 209.5 19.4972 209.5 25.02V51.02C209.5 56.5429 205.023 61.02 199.5 61.02V61.02C193.977 61.02 189.5 56.5429 189.5 51.02V25.02Z" fill="#818081"/>
<g filter="url(#filter4_di_670_7744)">
<path d="M214.965 16.52H198.5C197.948 16.52 197.5 16.9677 197.5 17.52V33.52C197.5 34.0723 197.948 34.52 198.5 34.52H214.965C215.299 34.52 215.611 34.3529 215.797 34.0747L221.13 26.0747C221.354 25.7388 221.354 25.3012 221.13 24.9653L215.797 16.9653C215.611 16.6871 215.299 16.52 214.965 16.52Z" fill="#F55C1A"/>
<path d="M222.378 24.1333L221.231 24.8979L222.378 24.1333L217.045 16.1333C216.581 15.4378 215.801 15.02 214.965 15.02H198.5C197.119 15.02 196 16.1393 196 17.52V33.52C196 34.9007 197.119 36.02 198.5 36.02H214.965C215.801 36.02 216.581 35.6023 217.045 34.9068L222.378 26.9068C222.938 26.067 222.938 24.973 222.378 24.1333Z" stroke="#FFE699" stroke-width="3"/>
</g>
<g filter="url(#filter5_di_670_7744)">
<rect x="198.5" y="43.02" width="22" height="15" rx="1" fill="#F5C51F"/>
<rect x="197" y="41.52" width="25" height="18" rx="2.5" stroke="#FFE699" stroke-width="3"/>
</g>
<defs>
<filter id="filter0_di_670_7744" x="56.5" y="9.52002" width="37.7982" height="32" filterUnits="userSpaceOnUse" color-interpolation-filters="sRGB">
<feFlood flood-opacity="0" result="BackgroundImageFix"/>
<feColorMatrix in="SourceAlpha" type="matrix" values="0 0 0 0 0 0 0 0 0 0 0 0 0 0 0 0 0 0 127 0" result="hardAlpha"/>
<feOffset/>
<feGaussianBlur stdDeviation="2"/>
<feComposite in2="hardAlpha" operator="out"/>
<feColorMatrix type="matrix" values="0 0 0 0 0.983264 0 0 0 0 0.727197 0 0 0 0 0.616736 0 0 0 1 0"/>
<feBlend mode="normal" in2="BackgroundImageFix" result="effect1_dropShadow_670_7744"/>
<feBlend mode="normal" in="SourceGraphic" in2="effect1_dropShadow_670_7744" result="shape"/>
<feColorMatrix in="SourceAlpha" type="matrix" values="0 0 0 0 0 0 0 0 0 0 0 0 0 0 0 0 0 0 127 0" result="hardAlpha"/>
<feOffset/>
<feGaussianBlur stdDeviation="6"/>
<feComposite in2="hardAlpha" operator="arithmetic" k2="-1" k3="1"/>
<feColorMatrix type="matrix" values="0 0 0 0 0.983264 0 0 0 0 0.727197 0 0 0 0 0.616736 0 0 0 1 0"/>
<feBlend mode="normal" in2="shape" result="effect2_innerShadow_670_7744"/>
</filter>
<filter id="filter1_di_670_7744" x="60.5" y="39.02" width="30" height="23" filterUnits="userSpaceOnUse" color-interpolation-filters="sRGB">
<feFlood flood-opacity="0" result="BackgroundImageFix"/>
<feColorMatrix in="SourceAlpha" type="matrix" values="0 0 0 0 0 0 0 0 0 0 0 0 0 0 0 0 0 0 127 0" result="hardAlpha"/>
<feOffset/>
<feGaussianBlur stdDeviation="2"/>
<feComposite in2="hardAlpha" operator="out"/>
<feColorMatrix type="matrix" values="0 0 0 0 0.991453 0 0 0 0 0.950427 0 0 0 0 0.808547 0 0 0 1 0"/>
<feBlend mode="normal" in2="BackgroundImageFix" result="effect1_dropShadow_670_7744"/>
<feBlend mode="normal" in="SourceGraphic" in2="effect1_dropShadow_670_7744" result="shape"/>
<feColorMatrix in="SourceAlpha" type="matrix" values="0 0 0 0 0 0 0 0 0 0 0 0 0 0 0 0 0 0 127 0" result="hardAlpha"/>
<feOffset/>
<feGaussianBlur stdDeviation="6"/>
<feComposite in2="hardAlpha" operator="arithmetic" k2="-1" k3="1"/>
<feColorMatrix type="matrix" values="0 0 0 0 0.991453 0 0 0 0 0.950427 0 0 0 0 0.808547 0 0 0 1 0"/>
<feBlend mode="normal" in2="shape" result="effect2_innerShadow_670_7744"/>
</filter>
<filter id="filter2_di_670_7744" x="0.5" y="35.02" width="59" height="31" filterUnits="userSpaceOnUse" color-interpolation-filters="sRGB">
<feFlood flood-opacity="0" result="BackgroundImageFix"/>
<feColorMatrix in="SourceAlpha" type="matrix" values="0 0 0 0 0 0 0 0 0 0 0 0 0 0 0 0 0 0 127 0" result="hardAlpha"/>
<feOffset/>
<feGaussianBlur stdDeviation="2"/>
<feComposite in2="hardAlpha" operator="out"/>
<feColorMatrix type="matrix" values="0 0 0 0 0.991453 0 0 0 0 0.950427 0 0 0 0 0.808547 0 0 0 1 0"/>
<feBlend mode="normal" in2="BackgroundImageFix" result="effect1_dropShadow_670_7744"/>
<feBlend mode="normal" in="SourceGraphic" in2="effect1_dropShadow_670_7744" result="shape"/>
<feColorMatrix in="SourceAlpha" type="matrix" values="0 0 0 0 0 0 0 0 0 0 0 0 0 0 0 0 0 0 127 0" result="hardAlpha"/>
<feOffset/>
<feGaussianBlur stdDeviation="6"/>
<feComposite in2="hardAlpha" operator="arithmetic" k2="-1" k3="1"/>
<feColorMatrix type="matrix" values="0 0 0 0 0.991453 0 0 0 0 0.950427 0 0 0 0 0.808547 0 0 0 1 0"/>
<feBlend mode="normal" in2="shape" result="effect2_innerShadow_670_7744"/>
</filter>
<filter id="filter3_di_670_7744" x="51.5" y="43.02" width="17" height="15" filterUnits="userSpaceOnUse" color-interpolation-filters="sRGB">
<feFlood flood-opacity="0" result="BackgroundImageFix"/>
<feColorMatrix in="SourceAlpha" type="matrix" values="0 0 0 0 0 0 0 0 0 0 0 0 0 0 0 0 0 0 127 0" result="hardAlpha"/>
<feOffset/>
<feGaussianBlur stdDeviation="2"/>
<feComposite in2="hardAlpha" operator="out"/>
<feColorMatrix type="matrix" values="0 0 0 0 0.991453 0 0 0 0 0.950427 0 0 0 0 0.808547 0 0 0 1 0"/>
<feBlend mode="normal" in2="BackgroundImageFix" result="effect1_dropShadow_670_7744"/>
<feBlend mode="normal" in="SourceGraphic" in2="effect1_dropShadow_670_7744" result="shape"/>
<feColorMatrix in="SourceAlpha" type="matrix" values="0 0 0 0 0 0 0 0 0 0 0 0 0 0 0 0 0 0 127 0" result="hardAlpha"/>
<feOffset/>
<feGaussianBlur stdDeviation="6"/>
<feComposite in2="hardAlpha" operator="arithmetic" k2="-1" k3="1"/>
<feColorMatrix type="matrix" values="0 0 0 0 0.991453 0 0 0 0 0.950427 0 0 0 0 0.808547 0 0 0 1 0"/>
<feBlend mode="normal" in2="shape" result="effect2_innerShadow_670_7744"/>
</filter>
<filter id="filter4_di_670_7744" x="190.5" y="9.52002" width="37.7981" height="32" filterUnits="userSpaceOnUse" color-interpolation-filters="sRGB">
<feFlood flood-opacity="0" result="BackgroundImageFix"/>
<feColorMatrix in="SourceAlpha" type="matrix" values="0 0 0 0 0 0 0 0 0 0 0 0 0 0 0 0 0 0 127 0" result="hardAlpha"/>
<feOffset/>
<feGaussianBlur stdDeviation="2"/>
<feComposite in2="hardAlpha" operator="out"/>
<feColorMatrix type="matrix" values="0 0 0 0 0.983264 0 0 0 0 0.727197 0 0 0 0 0.616736 0 0 0 1 0"/>
<feBlend mode="normal" in2="BackgroundImageFix" result="effect1_dropShadow_670_7744"/>
<feBlend mode="normal" in="SourceGraphic" in2="effect1_dropShadow_670_7744" result="shape"/>
<feColorMatrix in="SourceAlpha" type="matrix" values="0 0 0 0 0 0 0 0 0 0 0 0 0 0 0 0 0 0 127 0" result="hardAlpha"/>
<feOffset/>
<feGaussianBlur stdDeviation="6"/>
<feComposite in2="hardAlpha" operator="arithmetic" k2="-1" k3="1"/>
<feColorMatrix type="matrix" values="0 0 0 0 0.983264 0 0 0 0 0.727197 0 0 0 0 0.616736 0 0 0 1 0"/>
<feBlend mode="normal" in2="shape" result="effect2_innerShadow_670_7744"/>
</filter>
<filter id="filter5_di_670_7744" x="191.5" y="36.02" width="36" height="29" filterUnits="userSpaceOnUse" color-interpolation-filters="sRGB">
<feFlood flood-opacity="0" result="BackgroundImageFix"/>
<feColorMatrix in="SourceAlpha" type="matrix" values="0 0 0 0 0 0 0 0 0 0 0 0 0 0 0 0 0 0 127 0" result="hardAlpha"/>
<feOffset/>
<feGaussianBlur stdDeviation="2"/>
<feComposite in2="hardAlpha" operator="out"/>
<feColorMatrix type="matrix" values="0 0 0 0 0.991453 0 0 0 0 0.950427 0 0 0 0 0.808547 0 0 0 1 0"/>
<feBlend mode="normal" in2="BackgroundImageFix" result="effect1_dropShadow_670_7744"/>
<feBlend mode="normal" in="SourceGraphic" in2="effect1_dropShadow_670_7744" result="shape"/>
<feColorMatrix in="SourceAlpha" type="matrix" values="0 0 0 0 0 0 0 0 0 0 0 0 0 0 0 0 0 0 127 0" result="hardAlpha"/>
<feOffset/>
<feGaussianBlur stdDeviation="6"/>
<feComposite in2="hardAlpha" operator="arithmetic" k2="-1" k3="1"/>
<feColorMatrix type="matrix" values="0 0 0 0 0.991453 0 0 0 0 0.950427 0 0 0 0 0.808547 0 0 0 1 0"/>
<feBlend mode="normal" in2="shape" result="effect2_innerShadow_670_7744"/>
</filter>
</defs>
</svg>
