<svg width="297" height="115" viewBox="0 0 297 115" fill="none" xmlns="http://www.w3.org/2000/svg">
<path d="M130.5 10C130.5 4.47715 134.977 0 140.5 0H274.5C280.023 0 284.5 4.47715 284.5 10V41H130.5V10Z" fill="#525152"/>
<path d="M192.347 14.4C194.099 14.4 195.443 14.736 196.379 15.408C197.327 16.068 197.801 17.058 197.801 18.378C197.801 19.098 197.669 19.716 197.405 20.232C197.153 20.736 196.781 21.15 196.289 21.474C195.809 21.786 195.221 22.014 194.525 22.158C193.829 22.302 193.043 22.374 192.167 22.374H190.781V27H189.035V14.706C189.527 14.586 190.073 14.508 190.673 14.472C191.285 14.424 191.843 14.4 192.347 14.4ZM192.491 15.93C191.747 15.93 191.177 15.948 190.781 15.984V20.88H192.095C192.695 20.88 193.235 20.844 193.715 20.772C194.195 20.688 194.597 20.556 194.921 20.376C195.257 20.184 195.515 19.926 195.695 19.602C195.875 19.278 195.965 18.864 195.965 18.36C195.965 17.88 195.869 17.484 195.677 17.172C195.497 16.86 195.245 16.614 194.921 16.434C194.609 16.242 194.243 16.11 193.823 16.038C193.403 15.966 192.959 15.93 192.491 15.93ZM203.334 17.442C203.478 17.442 203.64 17.454 203.82 17.478C204.012 17.49 204.198 17.514 204.378 17.55C204.558 17.574 204.72 17.604 204.864 17.64C205.02 17.664 205.134 17.688 205.206 17.712L204.918 19.17C204.786 19.122 204.564 19.068 204.252 19.008C203.952 18.936 203.562 18.9 203.082 18.9C202.77 18.9 202.458 18.936 202.146 19.008C201.846 19.068 201.648 19.11 201.552 19.134V27H199.878V18.036C200.274 17.892 200.766 17.76 201.354 17.64C201.942 17.508 202.602 17.442 203.334 17.442ZM208.496 27H206.822V17.64H208.496V27ZM207.65 15.948C207.35 15.948 207.092 15.852 206.876 15.66C206.672 15.456 206.57 15.186 206.57 14.85C206.57 14.514 206.672 14.25 206.876 14.058C207.092 13.854 207.35 13.752 207.65 13.752C207.95 13.752 208.202 13.854 208.406 14.058C208.622 14.25 208.73 14.514 208.73 14.85C208.73 15.186 208.622 15.456 208.406 15.66C208.202 15.852 207.95 15.948 207.65 15.948ZM211.375 17.91C211.759 17.814 212.269 17.712 212.905 17.604C213.541 17.496 214.273 17.442 215.101 17.442C215.845 17.442 216.463 17.55 216.955 17.766C217.447 17.97 217.837 18.264 218.125 18.648C218.425 19.02 218.635 19.47 218.755 19.998C218.875 20.526 218.935 21.108 218.935 21.744V27H217.261V22.104C217.261 21.528 217.219 21.036 217.135 20.628C217.063 20.22 216.937 19.89 216.757 19.638C216.577 19.386 216.337 19.206 216.037 19.098C215.737 18.978 215.365 18.918 214.921 18.918C214.741 18.918 214.555 18.924 214.363 18.936C214.171 18.948 213.985 18.966 213.805 18.99C213.637 19.002 213.481 19.02 213.337 19.044C213.205 19.068 213.109 19.086 213.049 19.098V27H211.375V17.91ZM223.277 17.64H226.823V19.044H223.277V23.364C223.277 23.832 223.313 24.222 223.385 24.534C223.457 24.834 223.565 25.074 223.709 25.254C223.853 25.422 224.033 25.542 224.249 25.614C224.465 25.686 224.717 25.722 225.005 25.722C225.509 25.722 225.911 25.668 226.211 25.56C226.523 25.44 226.739 25.356 226.859 25.308L227.183 26.694C227.015 26.778 226.721 26.88 226.301 27C225.881 27.132 225.401 27.198 224.861 27.198C224.225 27.198 223.697 27.12 223.277 26.964C222.869 26.796 222.539 26.55 222.287 26.226C222.035 25.902 221.855 25.506 221.747 25.038C221.651 24.558 221.603 24.006 221.603 23.382V15.03L223.277 14.742V17.64Z" fill="white"/>
<path d="M130.5 41H284.5V105C284.5 110.523 280.023 115 274.5 115H140.5C134.977 115 130.5 110.523 130.5 105V41Z" fill="#818081"/>
<path d="M135.965 50.5H119.5C118.948 50.5 118.5 50.9477 118.5 51.5V67.5C118.5 68.0523 118.948 68.5 119.5 68.5H135.965C136.299 68.5 136.611 68.3329 136.797 68.0547L142.13 60.0547C142.354 59.7188 142.354 59.2812 142.13 58.9453L136.797 50.9453C136.611 50.6671 136.299 50.5 135.965 50.5Z" fill="#F55C1A"/>
<path d="M158.158 60.78C158.35 61.02 158.59 61.338 158.878 61.734C159.178 62.118 159.484 62.55 159.796 63.03C160.108 63.498 160.414 63.99 160.714 64.506C161.026 65.022 161.29 65.52 161.506 66H159.598C159.358 65.544 159.094 65.082 158.806 64.614C158.53 64.146 158.248 63.702 157.96 63.282C157.672 62.85 157.384 62.448 157.096 62.076C156.82 61.704 156.568 61.38 156.34 61.104C156.184 61.116 156.022 61.122 155.854 61.122C155.698 61.122 155.536 61.122 155.368 61.122H153.802V66H152.056V53.706C152.548 53.586 153.094 53.508 153.694 53.472C154.306 53.424 154.864 53.4 155.368 53.4C157.12 53.4 158.452 53.73 159.364 54.39C160.288 55.05 160.75 56.034 160.75 57.342C160.75 58.17 160.528 58.878 160.084 59.466C159.652 60.054 159.01 60.492 158.158 60.78ZM155.512 54.93C154.768 54.93 154.198 54.948 153.802 54.984V59.682H155.044C155.644 59.682 156.184 59.652 156.664 59.592C157.144 59.532 157.546 59.418 157.87 59.25C158.206 59.082 158.464 58.848 158.644 58.548C158.824 58.236 158.914 57.828 158.914 57.324C158.914 56.856 158.824 56.466 158.644 56.154C158.464 55.842 158.218 55.596 157.906 55.416C157.606 55.236 157.246 55.11 156.826 55.038C156.418 54.966 155.98 54.93 155.512 54.93ZM170.72 65.73C170.336 65.826 169.826 65.928 169.19 66.036C168.566 66.144 167.84 66.198 167.012 66.198C166.292 66.198 165.686 66.096 165.194 65.892C164.702 65.676 164.306 65.376 164.006 64.992C163.706 64.608 163.49 64.158 163.358 63.642C163.226 63.114 163.16 62.532 163.16 61.896V56.64H164.834V61.536C164.834 62.676 165.014 63.492 165.374 63.984C165.734 64.476 166.34 64.722 167.192 64.722C167.372 64.722 167.558 64.716 167.75 64.704C167.942 64.692 168.122 64.68 168.29 64.668C168.458 64.644 168.608 64.626 168.74 64.614C168.884 64.59 168.986 64.566 169.046 64.542V56.64H170.72V65.73ZM173.604 56.91C173.988 56.814 174.498 56.712 175.134 56.604C175.77 56.496 176.502 56.442 177.33 56.442C178.074 56.442 178.692 56.55 179.184 56.766C179.676 56.97 180.066 57.264 180.354 57.648C180.654 58.02 180.864 58.47 180.984 58.998C181.104 59.526 181.164 60.108 181.164 60.744V66H179.49V61.104C179.49 60.528 179.448 60.036 179.364 59.628C179.292 59.22 179.166 58.89 178.986 58.638C178.806 58.386 178.566 58.206 178.266 58.098C177.966 57.978 177.594 57.918 177.15 57.918C176.97 57.918 176.784 57.924 176.592 57.936C176.4 57.948 176.214 57.966 176.034 57.99C175.866 58.002 175.71 58.02 175.566 58.044C175.434 58.068 175.338 58.086 175.278 58.098V66H173.604V56.91Z" fill="white"/>
<g filter="url(#filter0_di_670_7490)">
<rect x="119.5" y="77" width="22" height="15" rx="1" fill="#784283"/>
</g>
<g filter="url(#filter1_di_670_7490)">
<rect x="4.5" y="73" width="106" height="23" rx="1" fill="#784283"/>
</g>
<rect x="8.5" y="77.001" width="98" height="15" rx="1" fill="#818081"/>
<path d="M12.9357 82.721C12.9357 82.6183 12.9357 82.5203 12.9357 82.427C12.9357 82.3243 12.9404 82.2263 12.9497 82.133C12.987 81.6477 13.0944 81.167 13.2717 80.691C13.449 80.215 13.6637 79.7717 13.9157 79.361L14.9237 79.683C14.7277 80.0937 14.5784 80.509 14.4757 80.929C14.3824 81.349 14.3357 81.741 14.3357 82.105C14.3357 82.1983 14.3357 82.301 14.3357 82.413C14.345 82.5157 14.3544 82.6183 14.3637 82.721H12.9357ZM15.4837 82.721C15.4837 82.6183 15.4837 82.5203 15.4837 82.427C15.4837 82.3243 15.4884 82.2263 15.4977 82.133C15.535 81.6477 15.6424 81.167 15.8197 80.691C15.997 80.215 16.2117 79.7717 16.4637 79.361L17.4717 79.683C17.2757 80.0937 17.1264 80.509 17.0237 80.929C16.9304 81.349 16.8837 81.741 16.8837 82.105C16.8837 82.1983 16.8837 82.301 16.8837 82.413C16.893 82.5157 16.9024 82.6183 16.9117 82.721H15.4837ZM25.2416 80.299H26.5996V90.001H25.2416V85.521H20.4956V90.001H19.1376V80.299H20.4956V84.345H25.2416V80.299ZM28.5187 86.375C28.5187 85.731 28.612 85.171 28.7987 84.695C28.9854 84.2097 29.2327 83.8083 29.5407 83.491C29.8487 83.1737 30.2034 82.9357 30.6047 82.777C31.006 82.6183 31.4167 82.539 31.8367 82.539C32.8167 82.539 33.568 82.847 34.0907 83.463C34.6134 84.0697 34.8747 84.9983 34.8747 86.249C34.8747 86.305 34.8747 86.3797 34.8747 86.473C34.8747 86.557 34.87 86.6363 34.8607 86.711H29.8767C29.9327 87.467 30.152 88.041 30.5347 88.433C30.9174 88.825 31.5147 89.021 32.3267 89.021C32.784 89.021 33.1667 88.9837 33.4747 88.909C33.792 88.825 34.03 88.7457 34.1887 88.671L34.3707 89.763C34.212 89.847 33.932 89.9357 33.5307 90.029C33.1387 90.1223 32.6907 90.169 32.1867 90.169C31.552 90.169 31.0014 90.0757 30.5347 89.889C30.0774 89.693 29.6994 89.427 29.4007 89.091C29.102 88.755 28.878 88.3583 28.7287 87.901C28.5887 87.4343 28.5187 86.9257 28.5187 86.375ZM33.5167 85.661C33.526 85.073 33.3767 84.5923 33.0687 84.219C32.77 83.8363 32.3547 83.645 31.8227 83.645C31.524 83.645 31.258 83.7057 31.0247 83.827C30.8007 83.939 30.6094 84.0883 30.4507 84.275C30.292 84.4617 30.166 84.6763 30.0727 84.919C29.9887 85.1617 29.9327 85.409 29.9047 85.661H33.5167ZM38.929 90.141C38.1263 90.1223 37.557 89.9497 37.221 89.623C36.885 89.2963 36.717 88.7877 36.717 88.097V79.361L38.019 79.137V87.887C38.019 88.1017 38.0377 88.279 38.075 88.419C38.1123 88.559 38.173 88.671 38.257 88.755C38.341 88.839 38.453 88.9043 38.593 88.951C38.733 88.9883 38.9057 89.021 39.111 89.049L38.929 90.141ZM42.7571 90.141C41.9545 90.1223 41.3851 89.9497 41.0491 89.623C40.7131 89.2963 40.5451 88.7877 40.5451 88.097V79.361L41.8471 79.137V87.887C41.8471 88.1017 41.8658 88.279 41.9031 88.419C41.9405 88.559 42.0011 88.671 42.0851 88.755C42.1691 88.839 42.2811 88.9043 42.4211 88.951C42.5611 88.9883 42.7338 89.021 42.9391 89.049L42.7571 90.141ZM50.8273 86.361C50.8273 86.9397 50.7433 87.4623 50.5753 87.929C50.4073 88.3957 50.1693 88.797 49.8613 89.133C49.5626 89.469 49.2033 89.7303 48.7833 89.917C48.3633 90.0943 47.9059 90.183 47.4113 90.183C46.9166 90.183 46.4593 90.0943 46.0393 89.917C45.6193 89.7303 45.2553 89.469 44.9473 89.133C44.6486 88.797 44.4153 88.3957 44.2473 87.929C44.0793 87.4623 43.9953 86.9397 43.9953 86.361C43.9953 85.7917 44.0793 85.2737 44.2473 84.807C44.4153 84.331 44.6486 83.925 44.9473 83.589C45.2553 83.253 45.6193 82.9963 46.0393 82.819C46.4593 82.6323 46.9166 82.539 47.4113 82.539C47.9059 82.539 48.3633 82.6323 48.7833 82.819C49.2033 82.9963 49.5626 83.253 49.8613 83.589C50.1693 83.925 50.4073 84.331 50.5753 84.807C50.7433 85.2737 50.8273 85.7917 50.8273 86.361ZM49.4693 86.361C49.4693 85.5397 49.2826 84.891 48.9093 84.415C48.5453 83.9297 48.0459 83.687 47.4113 83.687C46.7766 83.687 46.2726 83.9297 45.8993 84.415C45.5353 84.891 45.3533 85.5397 45.3533 86.361C45.3533 87.1823 45.5353 87.8357 45.8993 88.321C46.2726 88.797 46.7766 89.035 47.4113 89.035C48.0459 89.035 48.5453 88.797 48.9093 88.321C49.2826 87.8357 49.4693 87.1823 49.4693 86.361ZM61.2893 83.421C60.8973 84.6717 60.5006 85.829 60.0993 86.893C59.698 87.957 59.2966 88.993 58.8953 90.001H57.5373C57.0426 88.573 56.604 87.0657 56.2213 85.479C55.848 83.8923 55.498 82.1657 55.1713 80.299H56.5993C56.73 81.027 56.8653 81.755 57.0053 82.483C57.1453 83.211 57.29 83.9203 57.4393 84.611C57.5886 85.2923 57.738 85.9457 57.8873 86.571C58.0366 87.1963 58.1906 87.775 58.3493 88.307C58.7226 87.327 59.1193 86.2537 59.5393 85.087C59.9593 83.911 60.3513 82.6977 60.7153 81.447H61.8913C62.2553 82.6977 62.652 83.911 63.0813 85.087C63.5106 86.2537 63.912 87.327 64.2853 88.307C64.4346 87.7843 64.584 87.2103 64.7333 86.585C64.8826 85.9597 65.0273 85.3063 65.1673 84.625C65.3166 83.9343 65.4613 83.225 65.6013 82.497C65.7413 81.7597 65.8766 81.027 66.0073 80.299H67.3933C67.0573 82.1657 66.698 83.8923 66.3153 85.479C65.942 87.0657 65.5126 88.573 65.0273 90.001H63.6693C63.2586 88.993 62.8573 87.957 62.4653 86.893C62.0733 85.829 61.6813 84.6717 61.2893 83.421ZM75.0128 86.361C75.0128 86.9397 74.9288 87.4623 74.7608 87.929C74.5928 88.3957 74.3548 88.797 74.0468 89.133C73.7481 89.469 73.3888 89.7303 72.9688 89.917C72.5488 90.0943 72.0915 90.183 71.5968 90.183C71.1021 90.183 70.6448 90.0943 70.2248 89.917C69.8048 89.7303 69.4408 89.469 69.1328 89.133C68.8341 88.797 68.6008 88.3957 68.4328 87.929C68.2648 87.4623 68.1808 86.9397 68.1808 86.361C68.1808 85.7917 68.2648 85.2737 68.4328 84.807C68.6008 84.331 68.8341 83.925 69.1328 83.589C69.4408 83.253 69.8048 82.9963 70.2248 82.819C70.6448 82.6323 71.1021 82.539 71.5968 82.539C72.0915 82.539 72.5488 82.6323 72.9688 82.819C73.3888 82.9963 73.7481 83.253 74.0468 83.589C74.3548 83.925 74.5928 84.331 74.7608 84.807C74.9288 85.2737 75.0128 85.7917 75.0128 86.361ZM73.6548 86.361C73.6548 85.5397 73.4681 84.891 73.0948 84.415C72.7308 83.9297 72.2315 83.687 71.5968 83.687C70.9621 83.687 70.4581 83.9297 70.0848 84.415C69.7208 84.891 69.5388 85.5397 69.5388 86.361C69.5388 87.1823 69.7208 87.8357 70.0848 88.321C70.4581 88.797 70.9621 89.035 71.5968 89.035C72.2315 89.035 72.7308 88.797 73.0948 88.321C73.4681 87.8357 73.6548 87.1823 73.6548 86.361ZM79.5326 82.567C79.6446 82.567 79.7706 82.5763 79.9106 82.595C80.0599 82.6043 80.2046 82.623 80.3446 82.651C80.4846 82.6697 80.6106 82.693 80.7226 82.721C80.8439 82.7397 80.9326 82.7583 80.9886 82.777L80.7646 83.911C80.6619 83.8737 80.4893 83.8317 80.2466 83.785C80.0133 83.729 79.7099 83.701 79.3366 83.701C79.0939 83.701 78.8513 83.729 78.6086 83.785C78.3753 83.8317 78.2213 83.8643 78.1466 83.883V90.001H76.8446V83.029C77.1526 82.917 77.5353 82.8143 77.9926 82.721C78.4499 82.6183 78.9633 82.567 79.5326 82.567ZM84.429 90.141C83.6263 90.1223 83.057 89.9497 82.721 89.623C82.385 89.2963 82.217 88.7877 82.217 88.097V79.361L83.519 79.137V87.887C83.519 88.1017 83.5377 88.279 83.575 88.419C83.6123 88.559 83.673 88.671 83.757 88.755C83.841 88.839 83.953 88.9043 84.093 88.951C84.233 88.9883 84.4057 89.021 84.611 89.049L84.429 90.141ZM90.7771 84.261C90.6185 84.1303 90.3898 84.0043 90.0911 83.883C89.7925 83.7617 89.4658 83.701 89.1111 83.701C88.7378 83.701 88.4158 83.771 88.1451 83.911C87.8838 84.0417 87.6691 84.2283 87.5011 84.471C87.3331 84.7043 87.2118 84.9843 87.1371 85.311C87.0625 85.6377 87.0251 85.9877 87.0251 86.361C87.0251 87.2103 87.2351 87.8683 87.6551 88.335C88.0751 88.7923 88.6351 89.021 89.3351 89.021C89.6898 89.021 89.9838 89.007 90.2171 88.979C90.4598 88.9417 90.6465 88.9043 90.7771 88.867V84.261ZM90.7771 79.361L92.0791 79.137V89.791C91.7805 89.875 91.3978 89.959 90.9311 90.043C90.4645 90.127 89.9278 90.169 89.3211 90.169C88.7611 90.169 88.2571 90.0803 87.8091 89.903C87.3611 89.7257 86.9785 89.4737 86.6611 89.147C86.3438 88.8203 86.0965 88.4237 85.9191 87.957C85.7511 87.481 85.6671 86.949 85.6671 86.361C85.6671 85.801 85.7371 85.2877 85.8771 84.821C86.0265 84.3543 86.2411 83.953 86.5211 83.617C86.8011 83.281 87.1418 83.0197 87.5431 82.833C87.9538 82.6463 88.4205 82.553 88.9431 82.553C89.3631 82.553 89.7318 82.609 90.0491 82.721C90.3758 82.833 90.6185 82.9403 90.7771 83.043V79.361ZM95.8293 82.931C95.8293 83.715 95.8013 84.429 95.7453 85.073C95.6893 85.7077 95.6193 86.3423 95.5353 86.977H94.7233C94.6393 86.3423 94.5693 85.7077 94.5133 85.073C94.4573 84.429 94.4293 83.715 94.4293 82.931V80.299H95.8293V82.931ZM96.0673 89.245C96.0673 89.497 95.9833 89.7163 95.8153 89.903C95.6473 90.0897 95.4186 90.183 95.1293 90.183C94.8399 90.183 94.6113 90.0897 94.4433 89.903C94.2753 89.7163 94.1913 89.497 94.1913 89.245C94.1913 88.993 94.2753 88.7737 94.4433 88.587C94.6113 88.4003 94.8399 88.307 95.1293 88.307C95.4186 88.307 95.6473 88.4003 95.8153 88.587C95.9833 88.7737 96.0673 88.993 96.0673 89.245ZM99.5164 79.501C99.5164 79.6037 99.5164 79.7063 99.5164 79.809C99.5164 79.9023 99.5117 79.9957 99.5024 80.089C99.4651 80.5743 99.3577 81.055 99.1804 81.531C99.0031 81.9977 98.7884 82.441 98.5364 82.861L97.5284 82.539C97.7244 82.119 97.8691 81.7037 97.9624 81.293C98.0651 80.873 98.1164 80.481 98.1164 80.117C98.1164 80.0237 98.1117 79.9257 98.1024 79.823C98.1024 79.711 98.0977 79.6037 98.0884 79.501H99.5164ZM102.064 79.501C102.064 79.6037 102.064 79.7063 102.064 79.809C102.064 79.9023 102.06 79.9957 102.05 80.089C102.013 80.5743 101.906 81.055 101.728 81.531C101.551 81.9977 101.336 82.441 101.084 82.861L100.076 82.539C100.272 82.119 100.417 81.7037 100.51 81.293C100.613 80.873 100.664 80.481 100.664 80.117C100.664 80.0237 100.66 79.9257 100.65 79.823C100.65 79.711 100.646 79.6037 100.636 79.501H102.064Z" fill="#F6EEE8"/>
<g filter="url(#filter2_di_670_7490)">
<rect x="110.5" y="81" width="9" height="7" fill="#784283"/>
</g>
<path d="M157.98 89.272C157.86 88.984 157.698 88.618 157.494 88.174C157.302 87.73 157.092 87.25 156.864 86.734C156.636 86.218 156.39 85.69 156.126 85.15C155.874 84.598 155.634 84.082 155.406 83.602C155.178 83.11 154.962 82.672 154.758 82.288C154.566 81.904 154.41 81.61 154.29 81.406C154.158 82.822 154.05 84.358 153.966 86.014C153.882 87.658 153.81 89.32 153.75 91H152.04C152.088 89.92 152.142 88.834 152.202 87.742C152.262 86.638 152.328 85.558 152.4 84.502C152.484 83.434 152.568 82.396 152.652 81.388C152.748 80.38 152.85 79.426 152.958 78.526H154.488C154.812 79.054 155.16 79.678 155.532 80.398C155.904 81.118 156.276 81.874 156.648 82.666C157.02 83.446 157.38 84.232 157.728 85.024C158.076 85.804 158.394 86.518 158.682 87.166C158.97 86.518 159.288 85.804 159.636 85.024C159.984 84.232 160.344 83.446 160.716 82.666C161.088 81.874 161.46 81.118 161.832 80.398C162.204 79.678 162.552 79.054 162.876 78.526H164.406C164.814 82.546 165.12 86.704 165.324 91H163.614C163.554 89.32 163.482 87.658 163.398 86.014C163.314 84.358 163.206 82.822 163.074 81.406C162.954 81.61 162.792 81.904 162.588 82.288C162.396 82.672 162.186 83.11 161.958 83.602C161.73 84.082 161.484 84.598 161.22 85.15C160.968 85.69 160.728 86.218 160.5 86.734C160.272 87.25 160.056 87.73 159.852 88.174C159.66 88.618 159.504 88.984 159.384 89.272H157.98ZM167.432 86.338C167.432 85.51 167.552 84.79 167.792 84.178C168.032 83.554 168.35 83.038 168.746 82.63C169.142 82.222 169.598 81.916 170.114 81.712C170.63 81.508 171.158 81.406 171.698 81.406C172.958 81.406 173.924 81.802 174.596 82.594C175.268 83.374 175.604 84.568 175.604 86.176C175.604 86.248 175.604 86.344 175.604 86.464C175.604 86.572 175.598 86.674 175.586 86.77H169.178C169.25 87.742 169.532 88.48 170.024 88.984C170.516 89.488 171.284 89.74 172.328 89.74C172.916 89.74 173.408 89.692 173.804 89.596C174.212 89.488 174.518 89.386 174.722 89.29L174.956 90.694C174.752 90.802 174.392 90.916 173.876 91.036C173.372 91.156 172.796 91.216 172.148 91.216C171.332 91.216 170.624 91.096 170.024 90.856C169.436 90.604 168.95 90.262 168.566 89.83C168.182 89.398 167.894 88.888 167.702 88.3C167.522 87.7 167.432 87.046 167.432 86.338ZM173.858 85.42C173.87 84.664 173.678 84.046 173.282 83.566C172.898 83.074 172.364 82.828 171.68 82.828C171.296 82.828 170.954 82.906 170.654 83.062C170.366 83.206 170.12 83.398 169.916 83.638C169.712 83.878 169.55 84.154 169.43 84.466C169.322 84.778 169.25 85.096 169.214 85.42H173.858ZM180.186 89.794C180.87 89.794 181.374 89.704 181.698 89.524C182.034 89.344 182.202 89.056 182.202 88.66C182.202 88.252 182.04 87.928 181.716 87.688C181.392 87.448 180.858 87.178 180.114 86.878C179.754 86.734 179.406 86.59 179.07 86.446C178.746 86.29 178.464 86.11 178.224 85.906C177.984 85.702 177.792 85.456 177.648 85.168C177.504 84.88 177.432 84.526 177.432 84.106C177.432 83.278 177.738 82.624 178.35 82.144C178.962 81.652 179.796 81.406 180.852 81.406C181.116 81.406 181.38 81.424 181.644 81.46C181.908 81.484 182.154 81.52 182.382 81.568C182.61 81.604 182.808 81.646 182.976 81.694C183.156 81.742 183.294 81.784 183.39 81.82L183.084 83.26C182.904 83.164 182.622 83.068 182.238 82.972C181.854 82.864 181.392 82.81 180.852 82.81C180.384 82.81 179.976 82.906 179.628 83.098C179.28 83.278 179.106 83.566 179.106 83.962C179.106 84.166 179.142 84.346 179.214 84.502C179.298 84.658 179.418 84.802 179.574 84.934C179.742 85.054 179.946 85.168 180.186 85.276C180.426 85.384 180.714 85.498 181.05 85.618C181.494 85.786 181.89 85.954 182.238 86.122C182.586 86.278 182.88 86.464 183.12 86.68C183.372 86.896 183.564 87.16 183.696 87.472C183.828 87.772 183.894 88.144 183.894 88.588C183.894 89.452 183.57 90.106 182.922 90.55C182.286 90.994 181.374 91.216 180.186 91.216C179.358 91.216 178.71 91.144 178.242 91C177.774 90.868 177.456 90.766 177.288 90.694L177.594 89.254C177.786 89.326 178.092 89.434 178.512 89.578C178.932 89.722 179.49 89.794 180.186 89.794ZM188.22 89.794C188.904 89.794 189.408 89.704 189.732 89.524C190.068 89.344 190.236 89.056 190.236 88.66C190.236 88.252 190.074 87.928 189.75 87.688C189.426 87.448 188.892 87.178 188.148 86.878C187.788 86.734 187.44 86.59 187.104 86.446C186.78 86.29 186.498 86.11 186.258 85.906C186.018 85.702 185.826 85.456 185.682 85.168C185.538 84.88 185.466 84.526 185.466 84.106C185.466 83.278 185.772 82.624 186.384 82.144C186.996 81.652 187.83 81.406 188.886 81.406C189.15 81.406 189.414 81.424 189.678 81.46C189.942 81.484 190.188 81.52 190.416 81.568C190.644 81.604 190.842 81.646 191.01 81.694C191.19 81.742 191.328 81.784 191.424 81.82L191.118 83.26C190.938 83.164 190.656 83.068 190.272 82.972C189.888 82.864 189.426 82.81 188.886 82.81C188.418 82.81 188.01 82.906 187.662 83.098C187.314 83.278 187.14 83.566 187.14 83.962C187.14 84.166 187.176 84.346 187.248 84.502C187.332 84.658 187.452 84.802 187.608 84.934C187.776 85.054 187.98 85.168 188.22 85.276C188.46 85.384 188.748 85.498 189.084 85.618C189.528 85.786 189.924 85.954 190.272 86.122C190.62 86.278 190.914 86.464 191.154 86.68C191.406 86.896 191.598 87.16 191.73 87.472C191.862 87.772 191.928 88.144 191.928 88.588C191.928 89.452 191.604 90.106 190.956 90.55C190.32 90.994 189.408 91.216 188.22 91.216C187.392 91.216 186.744 91.144 186.276 91C185.808 90.868 185.49 90.766 185.322 90.694L185.628 89.254C185.82 89.326 186.126 89.434 186.546 89.578C186.966 89.722 187.524 89.794 188.22 89.794ZM197.243 89.794C197.639 89.794 197.987 89.788 198.287 89.776C198.599 89.752 198.857 89.716 199.061 89.668V86.878C198.941 86.818 198.743 86.77 198.467 86.734C198.203 86.686 197.879 86.662 197.495 86.662C197.243 86.662 196.973 86.68 196.685 86.716C196.409 86.752 196.151 86.83 195.911 86.95C195.683 87.058 195.491 87.214 195.335 87.418C195.179 87.61 195.101 87.868 195.101 88.192C195.101 88.792 195.293 89.212 195.677 89.452C196.061 89.68 196.583 89.794 197.243 89.794ZM197.099 81.406C197.771 81.406 198.335 81.496 198.791 81.676C199.259 81.844 199.631 82.09 199.907 82.414C200.195 82.726 200.399 83.104 200.519 83.548C200.639 83.98 200.699 84.46 200.699 84.988V90.838C200.555 90.862 200.351 90.898 200.087 90.946C199.835 90.982 199.547 91.018 199.223 91.054C198.899 91.09 198.545 91.12 198.161 91.144C197.789 91.18 197.417 91.198 197.045 91.198C196.517 91.198 196.031 91.144 195.587 91.036C195.143 90.928 194.759 90.76 194.435 90.532C194.111 90.292 193.859 89.98 193.679 89.596C193.499 89.212 193.409 88.75 193.409 88.21C193.409 87.694 193.511 87.25 193.715 86.878C193.931 86.506 194.219 86.206 194.579 85.978C194.939 85.75 195.359 85.582 195.839 85.474C196.319 85.366 196.823 85.312 197.351 85.312C197.519 85.312 197.693 85.324 197.873 85.348C198.053 85.36 198.221 85.384 198.377 85.42C198.545 85.444 198.689 85.468 198.809 85.492C198.929 85.516 199.013 85.534 199.061 85.546V85.078C199.061 84.802 199.031 84.532 198.971 84.268C198.911 83.992 198.803 83.752 198.647 83.548C198.491 83.332 198.275 83.164 197.999 83.044C197.735 82.912 197.387 82.846 196.955 82.846C196.403 82.846 195.917 82.888 195.497 82.972C195.089 83.044 194.783 83.122 194.579 83.206L194.381 81.82C194.597 81.724 194.957 81.634 195.461 81.55C195.965 81.454 196.511 81.406 197.099 81.406ZM209.347 90.064C209.203 90.16 208.921 90.286 208.501 90.442C208.093 90.586 207.613 90.658 207.061 90.658C206.497 90.658 205.963 90.568 205.459 90.388C204.967 90.208 204.535 89.932 204.163 89.56C203.791 89.176 203.497 88.702 203.281 88.138C203.065 87.574 202.957 86.902 202.957 86.122C202.957 85.438 203.059 84.814 203.263 84.25C203.467 83.674 203.761 83.182 204.145 82.774C204.541 82.354 205.021 82.03 205.585 81.802C206.149 81.562 206.785 81.442 207.493 81.442C208.273 81.442 208.951 81.502 209.527 81.622C210.115 81.73 210.607 81.832 211.003 81.928V90.28C211.003 91.72 210.631 92.764 209.887 93.412C209.143 94.06 208.015 94.384 206.503 94.384C205.915 94.384 205.357 94.336 204.829 94.24C204.313 94.144 203.863 94.03 203.479 93.898L203.785 92.44C204.121 92.572 204.529 92.686 205.009 92.782C205.501 92.89 206.011 92.944 206.539 92.944C207.535 92.944 208.249 92.746 208.681 92.35C209.125 91.954 209.347 91.324 209.347 90.46V90.064ZM209.329 83.116C209.161 83.068 208.933 83.026 208.645 82.99C208.369 82.942 207.991 82.918 207.511 82.918C206.611 82.918 205.915 83.212 205.423 83.8C204.943 84.388 204.703 85.168 204.703 86.14C204.703 86.68 204.769 87.142 204.901 87.526C205.045 87.91 205.231 88.228 205.459 88.48C205.699 88.732 205.969 88.918 206.269 89.038C206.581 89.158 206.899 89.218 207.223 89.218C207.667 89.218 208.075 89.158 208.447 89.038C208.819 88.906 209.113 88.756 209.329 88.588V83.116ZM213.363 86.338C213.363 85.51 213.483 84.79 213.723 84.178C213.963 83.554 214.281 83.038 214.677 82.63C215.073 82.222 215.529 81.916 216.045 81.712C216.561 81.508 217.089 81.406 217.629 81.406C218.889 81.406 219.855 81.802 220.527 82.594C221.199 83.374 221.535 84.568 221.535 86.176C221.535 86.248 221.535 86.344 221.535 86.464C221.535 86.572 221.529 86.674 221.517 86.77H215.109C215.181 87.742 215.463 88.48 215.955 88.984C216.447 89.488 217.215 89.74 218.259 89.74C218.847 89.74 219.339 89.692 219.735 89.596C220.143 89.488 220.449 89.386 220.653 89.29L220.887 90.694C220.683 90.802 220.323 90.916 219.807 91.036C219.303 91.156 218.727 91.216 218.079 91.216C217.263 91.216 216.555 91.096 215.955 90.856C215.367 90.604 214.881 90.262 214.497 89.83C214.113 89.398 213.825 88.888 213.633 88.3C213.453 87.7 213.363 87.046 213.363 86.338ZM219.789 85.42C219.801 84.664 219.609 84.046 219.213 83.566C218.829 83.074 218.295 82.828 217.611 82.828C217.227 82.828 216.885 82.906 216.585 83.062C216.297 83.206 216.051 83.398 215.847 83.638C215.643 83.878 215.481 84.154 215.361 84.466C215.253 84.778 215.181 85.096 215.145 85.42H219.789Z" fill="white"/>
<path d="M240.158 60.78C240.35 61.02 240.59 61.338 240.878 61.734C241.178 62.118 241.484 62.55 241.796 63.03C242.108 63.498 242.414 63.99 242.714 64.506C243.026 65.022 243.29 65.52 243.506 66H241.598C241.358 65.544 241.094 65.082 240.806 64.614C240.53 64.146 240.248 63.702 239.96 63.282C239.672 62.85 239.384 62.448 239.096 62.076C238.82 61.704 238.568 61.38 238.34 61.104C238.184 61.116 238.022 61.122 237.854 61.122C237.698 61.122 237.536 61.122 237.368 61.122H235.802V66H234.056V53.706C234.548 53.586 235.094 53.508 235.694 53.472C236.306 53.424 236.864 53.4 237.368 53.4C239.12 53.4 240.452 53.73 241.364 54.39C242.288 55.05 242.75 56.034 242.75 57.342C242.75 58.17 242.528 58.878 242.084 59.466C241.652 60.054 241.01 60.492 240.158 60.78ZM237.512 54.93C236.768 54.93 236.198 54.948 235.802 54.984V59.682H237.044C237.644 59.682 238.184 59.652 238.664 59.592C239.144 59.532 239.546 59.418 239.87 59.25C240.206 59.082 240.464 58.848 240.644 58.548C240.824 58.236 240.914 57.828 240.914 57.324C240.914 56.856 240.824 56.466 240.644 56.154C240.464 55.842 240.218 55.596 239.906 55.416C239.606 55.236 239.246 55.11 238.826 55.038C238.418 54.966 237.98 54.93 237.512 54.93ZM252.72 65.73C252.336 65.826 251.826 65.928 251.19 66.036C250.566 66.144 249.84 66.198 249.012 66.198C248.292 66.198 247.686 66.096 247.194 65.892C246.702 65.676 246.306 65.376 246.006 64.992C245.706 64.608 245.49 64.158 245.358 63.642C245.226 63.114 245.16 62.532 245.16 61.896V56.64H246.834V61.536C246.834 62.676 247.014 63.492 247.374 63.984C247.734 64.476 248.34 64.722 249.192 64.722C249.372 64.722 249.558 64.716 249.75 64.704C249.942 64.692 250.122 64.68 250.29 64.668C250.458 64.644 250.608 64.626 250.74 64.614C250.884 64.59 250.986 64.566 251.046 64.542V56.64H252.72V65.73ZM255.604 56.91C255.988 56.814 256.498 56.712 257.134 56.604C257.77 56.496 258.502 56.442 259.33 56.442C260.074 56.442 260.692 56.55 261.184 56.766C261.676 56.97 262.066 57.264 262.354 57.648C262.654 58.02 262.864 58.47 262.984 58.998C263.104 59.526 263.164 60.108 263.164 60.744V66H261.49V61.104C261.49 60.528 261.448 60.036 261.364 59.628C261.292 59.22 261.166 58.89 260.986 58.638C260.806 58.386 260.566 58.206 260.266 58.098C259.966 57.978 259.594 57.918 259.15 57.918C258.97 57.918 258.784 57.924 258.592 57.936C258.4 57.948 258.214 57.966 258.034 57.99C257.866 58.002 257.71 58.02 257.566 58.044C257.434 58.068 257.338 58.086 257.278 58.098V66H255.604V56.91Z" fill="white"/>
<path d="M289.965 50.5H273.5C272.948 50.5 272.5 50.9477 272.5 51.5V67.5C272.5 68.0523 272.948 68.5 273.5 68.5H289.965C290.299 68.5 290.611 68.3329 290.797 68.0547L296.13 60.0547C296.354 59.7188 296.354 59.2812 296.13 58.9453L290.797 50.9453C290.611 50.6671 290.299 50.5 289.965 50.5Z" fill="#F55C1A"/>
<defs>
<filter id="filter0_di_670_7490" x="115.5" y="73" width="30" height="23" filterUnits="userSpaceOnUse" color-interpolation-filters="sRGB">
<feFlood flood-opacity="0" result="BackgroundImageFix"/>
<feColorMatrix in="SourceAlpha" type="matrix" values="0 0 0 0 0 0 0 0 0 0 0 0 0 0 0 0 0 0 127 0" result="hardAlpha"/>
<feOffset/>
<feGaussianBlur stdDeviation="2"/>
<feComposite in2="hardAlpha" operator="out"/>
<feColorMatrix type="matrix" values="0 0 0 0 0.764706 0 0 0 0 0.6 0 0 0 0 0.8 0 0 0 1 0"/>
<feBlend mode="normal" in2="BackgroundImageFix" result="effect1_dropShadow_670_7490"/>
<feBlend mode="normal" in="SourceGraphic" in2="effect1_dropShadow_670_7490" result="shape"/>
<feColorMatrix in="SourceAlpha" type="matrix" values="0 0 0 0 0 0 0 0 0 0 0 0 0 0 0 0 0 0 127 0" result="hardAlpha"/>
<feOffset/>
<feGaussianBlur stdDeviation="6"/>
<feComposite in2="hardAlpha" operator="arithmetic" k2="-1" k3="1"/>
<feColorMatrix type="matrix" values="0 0 0 0 0.765482 0 0 0 0 0.601015 0 0 0 0 0.798985 0 0 0 1 0"/>
<feBlend mode="normal" in2="shape" result="effect2_innerShadow_670_7490"/>
</filter>
<filter id="filter1_di_670_7490" x="0.5" y="69" width="114" height="31" filterUnits="userSpaceOnUse" color-interpolation-filters="sRGB">
<feFlood flood-opacity="0" result="BackgroundImageFix"/>
<feColorMatrix in="SourceAlpha" type="matrix" values="0 0 0 0 0 0 0 0 0 0 0 0 0 0 0 0 0 0 127 0" result="hardAlpha"/>
<feOffset/>
<feGaussianBlur stdDeviation="2"/>
<feComposite in2="hardAlpha" operator="out"/>
<feColorMatrix type="matrix" values="0 0 0 0 0.764706 0 0 0 0 0.6 0 0 0 0 0.8 0 0 0 1 0"/>
<feBlend mode="normal" in2="BackgroundImageFix" result="effect1_dropShadow_670_7490"/>
<feBlend mode="normal" in="SourceGraphic" in2="effect1_dropShadow_670_7490" result="shape"/>
<feColorMatrix in="SourceAlpha" type="matrix" values="0 0 0 0 0 0 0 0 0 0 0 0 0 0 0 0 0 0 127 0" result="hardAlpha"/>
<feOffset/>
<feGaussianBlur stdDeviation="6"/>
<feComposite in2="hardAlpha" operator="arithmetic" k2="-1" k3="1"/>
<feColorMatrix type="matrix" values="0 0 0 0 0.765482 0 0 0 0 0.601015 0 0 0 0 0.798985 0 0 0 1 0"/>
<feBlend mode="normal" in2="shape" result="effect2_innerShadow_670_7490"/>
</filter>
<filter id="filter2_di_670_7490" x="106.5" y="77" width="17" height="15" filterUnits="userSpaceOnUse" color-interpolation-filters="sRGB">
<feFlood flood-opacity="0" result="BackgroundImageFix"/>
<feColorMatrix in="SourceAlpha" type="matrix" values="0 0 0 0 0 0 0 0 0 0 0 0 0 0 0 0 0 0 127 0" result="hardAlpha"/>
<feOffset/>
<feGaussianBlur stdDeviation="2"/>
<feComposite in2="hardAlpha" operator="out"/>
<feColorMatrix type="matrix" values="0 0 0 0 0.764706 0 0 0 0 0.6 0 0 0 0 0.8 0 0 0 1 0"/>
<feBlend mode="normal" in2="BackgroundImageFix" result="effect1_dropShadow_670_7490"/>
<feBlend mode="normal" in="SourceGraphic" in2="effect1_dropShadow_670_7490" result="shape"/>
<feColorMatrix in="SourceAlpha" type="matrix" values="0 0 0 0 0 0 0 0 0 0 0 0 0 0 0 0 0 0 127 0" result="hardAlpha"/>
<feOffset/>
<feGaussianBlur stdDeviation="6"/>
<feComposite in2="hardAlpha" operator="arithmetic" k2="-1" k3="1"/>
<feColorMatrix type="matrix" values="0 0 0 0 0.765482 0 0 0 0 0.601015 0 0 0 0 0.798985 0 0 0 1 0"/>
<feBlend mode="normal" in2="shape" result="effect2_innerShadow_670_7490"/>
</filter>
</defs>
</svg>
